<svg xmlns="http://www.w3.org/2000/svg" width="110" height="182.093" viewBox="0 0 110 182.093">
  <g id="assitant_vector_color" transform="translate(328 -2509)">
    <g id="Grupo_88" data-name="Grupo 88" transform="translate(-328 2610.307)">
      <g id="Grupo_23" data-name="Grupo 23" transform="translate(0 5.766)">
        <path id="Trazado_16" data-name="Trazado 16" d="M261.444,270.166l-12.564,31.872-15.644-14.461-15.643,14.461L205.03,270.166l-26.793,8.49s5.248,66.358,55,66.529c49.752-.171,55-66.529,55-66.529Z" transform="translate(-178.237 -270.166)" fill="#091a2b"/>
      </g>
      <g id="Grupo_24" data-name="Grupo 24" transform="translate(21.48 5.766)">
        <path id="Trazado_17" data-name="Trazado 17" d="M274.712,300.137l-.024-28.3-5.288-1.675-12.564,31.872-.073-.066-15.571,39.191-15.571-39.191-.072.066-12.564-31.872-5.288,1.675-.024,28.3h5.312l-5.312,4.562,27,40.068a50.921,50.921,0,0,0,13.035,0l27-40.068-5.312-4.562Z" transform="translate(-207.673 -270.166)" fill="#091a2b"/>
      </g>
      <g id="Grupo_30" data-name="Grupo 30" transform="translate(26.792)">
        <g id="Grupo_27" data-name="Grupo 27" transform="translate(19.319 23.177)">
          <g id="Grupo_25" data-name="Grupo 25">
            <path id="Trazado_18" data-name="Trazado 18" d="M250.315,294.025l-8.889,8.217,4.01,7.7h9.758l4.01-7.7Z" transform="translate(-241.427 -294.025)" fill="#006aff"/>
          </g>
          <g id="Grupo_26" data-name="Grupo 26" transform="translate(0 15.919)">
            <path id="Trazado_19" data-name="Trazado 19" d="M255.194,315.84h-9.758l-4.01,15.294,8.889,22.372,8.889-22.372Z" transform="translate(-241.427 -315.84)" fill="#006aff"/>
          </g>
          <path id="Trazado_20" data-name="Trazado 20" d="M246.856,315.84h9.758l2.356,8.985-4.3-6.679L255.031,330l-4.561-12.04-3.792-1.449Z" transform="translate(-242.846 -299.921)" fill="#29598a"/>
        </g>
        <g id="Grupo_28" data-name="Grupo 28">
          <path id="Trazado_21" data-name="Trazado 21" d="M268.822,262.264,243.16,285.1,217.5,262.264l-2.545,5.766L227.516,299.9l15.644-14.461L258.8,299.9l12.564-31.872Z" transform="translate(-214.953 -262.264)" fill="#dceff4"/>
        </g>
        <g id="Grupo_29" data-name="Grupo 29" transform="translate(12.564 31.394)">
          <path id="Trazado_22" data-name="Trazado 22" d="M238.925,305.285l4.01,7.7-4.01,15.294L232.17,311.53Z" transform="translate(-232.17 -305.285)" fill="#b0d8e2"/>
          <path id="Trazado_23" data-name="Trazado 23" d="M264.3,305.285l6.755,6.244L264.3,328.281l-4.01-15.294Z" transform="translate(-239.771 -305.285)" fill="#b0d8e2"/>
        </g>
      </g>
    </g>
    <g id="Grupo_89" data-name="Grupo 89" transform="translate(-320.733 2509)">
      <g id="Grupo_32" data-name="Grupo 32" transform="translate(6.197 6.931)">
        <path id="Trazado_24" data-name="Trazado 24" d="M238.223,132.934a41.722,41.722,0,0,0-41.535,41.72c0,.981.047,1.951.113,2.915h3.432c-.073-.963-.122-1.932-.122-2.915a38.113,38.113,0,1,1,76.225,0c0,.982-.049,1.951-.121,2.915h3.432c.066-.964.112-1.934.112-2.915A41.722,41.722,0,0,0,238.223,132.934Z" transform="translate(-196.688 -132.934)" fill="#303030"/>
      </g>
      <g id="Grupo_36" data-name="Grupo 36" transform="translate(13.765)">
        <g id="Grupo_33" data-name="Grupo 33" transform="translate(8.782 87.864)">
          <path id="Trazado_25" data-name="Trazado 25" d="M267.569,243.843h0c-5.763,6.55-17.461,19.208-18.536,19.208h-9.5c-1.076,0-12.773-12.658-18.537-19.208h0l-1.9,13.866,25.186,22.408,25.186-22.408Z" transform="translate(-219.093 -243.843)" fill="#f4caa4"/>
          <path id="Trazado_26" data-name="Trazado 26" d="M268.205,243.844c-5.763,6.55-17.461,19.208-18.536,19.208h-9.5c-1.076,0-12.773-12.658-18.537-19.208h0l-.174,1.27h0l25.888,32.848L270.1,257.709l-1.9-13.866Z" transform="translate(-219.731 -243.843)" fill="#d3a07d"/>
        </g>
        <g id="Grupo_34" data-name="Grupo 34" transform="translate(2.49 11.185)">
          <path id="Trazado_27" data-name="Trazado 27" d="M270.526,153.545c-2.88-4.936-13.982-15.232-28.578-14.767-14.6-.466-25.7,9.831-28.577,14.767-2.661,4.562-3.168,25.726-2.788,27.88s3.929,28.641,4.942,30.288S235.8,234.652,237.2,234.652h9.5c1.394,0,20.656-21.291,21.67-22.938s4.562-28.133,4.942-30.288S273.188,158.107,270.526,153.545Z" transform="translate(-210.472 -138.763)" fill="#f4caa4"/>
        </g>
        <g id="Grupo_35" data-name="Grupo 35">
          <path id="Trazado_28" data-name="Trazado 28" d="M274.892,165.844c-.712-1.22-1.627-12.1-3.152-14.848a18.3,18.3,0,0,0-2.716-3.509c1.84-4.927-.844-17.949-.844-17.949a27.042,27.042,0,0,1-1.017,4.576c.651-5.083-3.255-10.678-3.255-10.678-1.525,6-10.983,9.864-10.983,9.864,1.932-2.675.712-6.508.712-6.508-2.339,4.068-11.7,5.7-17.154,7.289s-17.006,2.389-19.254,4.814c-1.42,1.532-1.7,4.577-1.705,6.613h0s-3.786,2.743-5.311,5.489-2.441,13.628-3.153,14.848l1.526-1.424,1,12a8.027,8.027,0,0,0,.072.863l6.59-11.849,1.045-9.315,12.737,1.711v-.856l10.993,1.682,10.994-1.682v.856l12.736-1.711,1.046,9.315,6.589,11.849a9.361,9.361,0,0,0,.083-1.095l.892-11.768Z" transform="translate(-207.059 -123.436)" fill="#664c3b"/>
          <path id="Trazado_29" data-name="Trazado 29" d="M284.807,146.628c1.3-5.425-1.1-17.09-1.1-17.09a27.039,27.039,0,0,1-1.017,4.576c.651-5.083-3.255-10.678-3.255-10.678s3.277,16.325-8.274,29.849c2.441-6.2,2.007-14.113,2.007-14.113a31.819,31.819,0,0,1-8.655,18.267l3.035-.465v.856l12.736-1.711a35.063,35.063,0,0,0,4.267-8.632Q284.676,147.055,284.807,146.628Z" transform="translate(-222.587 -123.436)" fill="#3d2f27"/>
        </g>
      </g>
      <g id="Grupo_39" data-name="Grupo 39" transform="translate(0 45.799)">
        <g id="Grupo_37" data-name="Grupo 37" transform="translate(75.653 0)">
          <rect id="Rectángulo_9" data-name="Rectángulo 9" width="34.391" height="7.454" rx="3.727" transform="translate(0 34.187) rotate(-83.753)" fill="#282828"/>
          <rect id="Rectángulo_10" data-name="Rectángulo 10" width="1.228" height="28.885" transform="matrix(0.994, 0.109, -0.109, 0.994, 10.852, 3.548)" fill="#212121"/>
          <path id="Trazado_30" data-name="Trazado 30" d="M307.867,190.11a.54.54,0,0,0-.6.478L304.053,220a.541.541,0,0,0,.478.6,7.973,7.973,0,0,0,8.793-7.059l1.6-14.63A7.972,7.972,0,0,0,307.867,190.11Z" transform="translate(-295.16 -187.254)" fill="#282828"/>
        </g>
        <g id="Grupo_38" data-name="Grupo 38" transform="translate(0 0)">
          <rect id="Rectángulo_11" data-name="Rectángulo 11" width="7.454" height="34.391" rx="3.727" transform="translate(8.661 0.811) rotate(-6.247)" fill="#303030"/>
          <rect id="Rectángulo_12" data-name="Rectángulo 12" width="1.228" height="28.885" transform="translate(12.103 32.262) rotate(173.755)" fill="#282828"/>
          <path id="Trazado_31" data-name="Trazado 31" d="M195.3,190.11a.539.539,0,0,1,.6.478L199.115,220a.54.54,0,0,1-.478.6,7.974,7.974,0,0,1-8.793-7.059l-1.6-14.63A7.973,7.973,0,0,1,195.3,190.11Z" transform="translate(-188.195 -187.254)" fill="#303030"/>
        </g>
        <path id="Trazado_32" data-name="Trazado 32" d="M227.6,240.639c-2.115-.206-3.987.306-4.818,1.207a14.3,14.3,0,0,1-12.729-9.752l-1.5-.131a15.693,15.693,0,0,0,13.806,11.255c.27,1.286,2.235,2.441,4.722,2.685,2.767.27,5.126-.689,5.268-2.142S230.372,240.909,227.6,240.639Z" transform="translate(-193.7 -198.566)" fill="#303030"/>
      </g>
    </g>
  </g>
</svg>
