<svg id="Capa_1" data-name="Capa 1" xmlns="http://www.w3.org/2000/svg" viewBox="0 0 1250 187"><defs><style>.cls-1{fill:#006aff;}</style></defs><title>Mesa de trabajo 1</title><path class="cls-1" d="M70.31,1.92Q93,1.92,108.2,5.46a85,85,0,0,1,27,11.13,66.79,66.79,0,0,1,19.09,18.14,75.38,75.38,0,0,1,10.8,24.45,128.34,128.34,0,0,1,3.53,31.44q0,21.19-5,38a80,80,0,0,1-14.87,28.8,71.93,71.93,0,0,1-21.67,17.66,95.62,95.62,0,0,1-29.54,9.78q-14.4,2.45-36.27,2.44H-.33v-9a38.56,38.56,0,0,0,8-2.92A10,10,0,0,0,12,171.1,19.54,19.54,0,0,0,13.8,164q.4-4.28.41-10.8V36.15c0-4.25-.12-7.83-.34-10.73a18.41,18.41,0,0,0-1.77-7.06A11,11,0,0,0,7.76,14,33.3,33.3,0,0,0-.33,10.89v-9Zm-14,169a106.76,106.76,0,0,0,12.37.41q14.94,0,25.12-4.35a37.42,37.42,0,0,0,12.91-9q8.82-9.36,13.31-24.31,4.89-16.31,4.89-39.8,0-25.8-6.93-42.85T98.49,25.9Q85.92,17.82,68.4,17.82q-8.42,0-12.09.27Z"/><path class="cls-1" d="M252.32,153.24q0,4.75.27,8.83a28.43,28.43,0,0,0,1.09,6.65,11.69,11.69,0,0,0,2.37,4.35,13.11,13.11,0,0,0,4.28,3.06,34.23,34.23,0,0,0,6.66,2.24v9H195.68v-9a38.22,38.22,0,0,0,7.94-2.92A10,10,0,0,0,208,171.1,19.54,19.54,0,0,0,209.8,164c.28-2.85.41-6.45.41-10.8V36q0-6.53-.34-10.73a18.55,18.55,0,0,0-1.76-7,10.44,10.44,0,0,0-4.35-4.41,35.72,35.72,0,0,0-8.08-3v-9H267v9a30.8,30.8,0,0,0-8.22,3.19,11.72,11.72,0,0,0-4,4.14,18.46,18.46,0,0,0-1.9,6.39,91.7,91.7,0,0,0-.54,11.54Z"/><path class="cls-1" d="M502.11,10.89q-7.2,2-9.78,4.41a12.73,12.73,0,0,0-3.6,6.39q-1,4-1,14.19v117.5a82.77,82.77,0,0,0,.82,13.1,13.15,13.15,0,0,0,3.33,7.34q2.5,2.52,10.25,4.55v9H432.43v-9a46.24,46.24,0,0,0,8.29-2.85,9.59,9.59,0,0,0,3.6-3.2,15.42,15.42,0,0,0,1.9-6,99,99,0,0,0,.61-13.25V86.55q0-11,.41-25.95t.81-21.19H445.2q-1.63,5.45-3.46,10.67t-6.86,18.67l-36.41,98.07h-23.9L336.26,56.66q-3.39-9.36-6-18.6h-2.45q1.37,22.41,1.36,53v62.48q0,10.05.95,14A12.49,12.49,0,0,0,334,174q2.87,2.58,9.92,4.35v9H292.53v-9a35.64,35.64,0,0,0,7.94-3,11,11,0,0,0,4.42-4.35,17.37,17.37,0,0,0,1.83-6.92c.22-2.81.34-6.39.34-10.73V35.88q0-10.32-.88-14.12a12.18,12.18,0,0,0-3.47-6.25q-2.58-2.44-10.18-4.62v-9H360l37.63,111.52L438.41,1.92h63.7Z"/><path class="cls-1" d="M609.69,189.51q-39.93,0-60-23.37t-20-69.95q0-30.56,9.71-52.23T568,11Q586.88-.25,613-.25q40.62,0,61,23.3t20.37,69.2q0,25.68-6,44.08t-17.18,30.22a67.37,67.37,0,0,1-26.69,17.39A102.49,102.49,0,0,1,609.69,189.51Zm-36.81-97q0,41,9.85,61.06t30.09,20q10.45,0,17.79-5.63a40.05,40.05,0,0,0,11.88-15.76,88.68,88.68,0,0,0,6.52-24,216,216,0,0,0,2-30.43q0-27-4.27-45.3T633.8,25q-8.62-9.3-22.07-9.31-19.69,0-29.27,18.82T572.88,92.52Z"/><path class="cls-1" d="M753.67,187.33v-9a35.58,35.58,0,0,0,9-2.51,10.78,10.78,0,0,0,4.95-4.42,17.8,17.8,0,0,0,2-7.27q.4-4.41.41-10.93V17.82h-11q-8.16,0-12.5,1.9a19.48,19.48,0,0,0-7.54,6,36.79,36.79,0,0,0-5.5,10.94q-2.31,6.85-3.8,13H711.16V1.92H871V49.6H852.42q-2.58-9.24-4.07-13.58a39.3,39.3,0,0,0-3.33-7.4,26.17,26.17,0,0,0-3.87-5.1,18.33,18.33,0,0,0-4.35-3.26A19.89,19.89,0,0,0,831,18.43a53.64,53.64,0,0,0-9-.61h-9.78V153.24q0,7.2.4,10.93a19.33,19.33,0,0,0,1.5,6.05,11.52,11.52,0,0,0,2.65,3.73,14.59,14.59,0,0,0,4.34,2.59,32.05,32.05,0,0,0,7.54,1.83v9Z"/><path class="cls-1" d="M966.52,189.51q-39.93,0-60-23.37t-20-69.95q0-30.56,9.71-52.23T924.82,11q18.88-11.26,45-11.27,40.62,0,61,23.3t20.37,69.2q0,25.68-6,44.08t-17.18,30.22a67.37,67.37,0,0,1-26.69,17.39A102.49,102.49,0,0,1,966.52,189.51Zm-36.81-97q0,41,9.85,61.06t30.08,20q10.47,0,17.8-5.63a40.05,40.05,0,0,0,11.88-15.76,88.68,88.68,0,0,0,6.52-24,216,216,0,0,0,2-30.43q0-27-4.28-45.3T990.63,25q-8.62-9.3-22.07-9.31-19.69,0-29.27,18.82T929.71,92.52Z"/><path class="cls-1" d="M1149.89,187.33h-71.31v-9a38.56,38.56,0,0,0,8-2.92,10.07,10.07,0,0,0,4.34-4.35,19.54,19.54,0,0,0,1.84-7.06q.4-4.28.4-10.8V36.15q0-6.37-.33-10.73a18.41,18.41,0,0,0-1.77-7.06,11,11,0,0,0-4.35-4.41,33,33,0,0,0-8.08-3.06v-9h79.19A140.7,140.7,0,0,1,1185,4.17,68.61,68.61,0,0,1,1204.63,11a40.93,40.93,0,0,1,12,9.58,41.4,41.4,0,0,1,7.53,13.45,54.64,54.64,0,0,1,2.65,17.86q0,13.32-4.68,22.82a45.75,45.75,0,0,1-12.64,15.82q-7.93,6.32-21.25,11.89v1.36a47.71,47.71,0,0,1,16.64,11.61,75.57,75.57,0,0,1,11.88,18.41l8.56,18.47q5.7,12.36,11.34,18.54a23.16,23.16,0,0,0,13.38,7.54v9h-52.3q-7.87-10.86-17.79-32.32l-10.59-23.23q-4.75-10.32-8.15-14.67a19.47,19.47,0,0,0-7-6q-3.6-1.62-11.07-1.63h-7.88v43.74q0,10.19,1,14.26a12.28,12.28,0,0,0,3.67,6.52q2.72,2.44,10.05,4.35ZM1135.22,18.09V93.61h13.45q10.86,0,17.93-2.92a27.24,27.24,0,0,0,11.21-8.15,29.82,29.82,0,0,0,5.7-12.29,71.86,71.86,0,0,0,1.56-15.49q0-18.46-8.69-27.71t-25.81-9.23Q1138.89,17.82,1135.22,18.09Z"/></svg>