<svg id="Capa_1" data-name="Capa 1" xmlns="http://www.w3.org/2000/svg" viewBox="0 0 1251 398"><defs><style>.cls-1{fill:#fff;}</style></defs><title>Mesa de trabajo 3</title><path class="cls-1" d="M71.24,3.92q22.7,0,37.9,3.54a85,85,0,0,1,27,11.13,66.79,66.79,0,0,1,19.09,18.14,75.15,75.15,0,0,1,10.79,24.45,127.83,127.83,0,0,1,3.54,31.44q0,21.19-5,38a79.85,79.85,0,0,1-14.88,28.8,71.77,71.77,0,0,1-21.66,17.66,95.71,95.71,0,0,1-29.54,9.78q-14.4,2.45-36.27,2.44H.61v-9a38.56,38.56,0,0,0,8-2.92,10.07,10.07,0,0,0,4.34-4.35A19.33,19.33,0,0,0,14.74,166q.4-4.28.41-10.8V38.15c0-4.25-.12-7.83-.34-10.73A18.41,18.41,0,0,0,13,20.36,11,11,0,0,0,8.69,16,33,33,0,0,0,.61,12.89v-9Zm-14,169a106.66,106.66,0,0,0,12.36.41q14.94,0,25.13-4.35a37.42,37.42,0,0,0,12.91-9q8.82-9.36,13.31-24.31,4.89-16.31,4.89-39.8,0-25.8-6.93-42.85T99.43,27.9q-12.57-8.08-30.09-8.08-8.42,0-12.09.27Z"/><path class="cls-1" d="M253.26,155.24q0,4.75.27,8.83a28.43,28.43,0,0,0,1.09,6.65,11.69,11.69,0,0,0,2.37,4.35,13.11,13.11,0,0,0,4.28,3.06,34.23,34.23,0,0,0,6.66,2.24v9H196.62v-9a38.45,38.45,0,0,0,7.94-2.92,10,10,0,0,0,4.35-4.35,19.54,19.54,0,0,0,1.83-7.06q.4-4.28.41-10.8V38q0-6.53-.34-10.73a18.74,18.74,0,0,0-1.76-7,10.56,10.56,0,0,0-4.35-4.41,35.72,35.72,0,0,0-8.08-3v-9h71.31v9a30.8,30.8,0,0,0-8.22,3.19,11.64,11.64,0,0,0-4,4.14,18.46,18.46,0,0,0-1.9,6.39,91.7,91.7,0,0,0-.54,11.54Z"/><path class="cls-1" d="M503.05,12.89q-7.2,2-9.78,4.41a12.73,12.73,0,0,0-3.6,6.39q-1,4-1,14.19v117.5a82.77,82.77,0,0,0,.82,13.1,13.15,13.15,0,0,0,3.33,7.34q2.51,2.52,10.25,4.55v9H433.37v-9a46.84,46.84,0,0,0,8.29-2.85,9.67,9.67,0,0,0,3.6-3.2,15.42,15.42,0,0,0,1.9-6,100.8,100.8,0,0,0,.61-13.25V88.55q0-11,.41-25.95T449,41.41h-2.85q-1.63,5.45-3.47,10.67t-6.85,18.67l-36.41,98.07h-23.9L337.2,58.66q-3.39-9.36-6-18.6h-2.45q1.35,22.41,1.36,53v62.48q0,10.05.95,14a12.49,12.49,0,0,0,3.8,6.52q2.85,2.58,9.92,4.35v9H293.46v-9a35.55,35.55,0,0,0,8-3,10.93,10.93,0,0,0,4.41-4.35,17.2,17.2,0,0,0,1.84-6.92c.22-2.81.34-6.39.34-10.73V37.88q0-10.32-.88-14.12a12.25,12.25,0,0,0-3.47-6.25q-2.58-2.45-10.19-4.62v-9H361L398.6,115.44,439.35,3.92h63.7Z"/><path class="cls-1" d="M610.63,191.51q-39.93,0-60-23.37t-20-69.95q0-30.56,9.71-52.23T568.93,13q18.89-11.26,45-11.27,40.62,0,61,23.3t20.37,69.2q0,25.68-6,44.08T672,168.55a67.33,67.33,0,0,1-26.7,17.39A102.43,102.43,0,0,1,610.63,191.51Zm-36.81-97q0,41,9.85,61.06t30.08,20q10.47,0,17.8-5.63a40.05,40.05,0,0,0,11.88-15.76,88.68,88.68,0,0,0,6.52-24,217.51,217.51,0,0,0,2-30.43q0-27-4.28-45.3T634.74,27q-8.62-9.3-22.07-9.31-19.7,0-29.27,18.82T573.82,94.52Z"/><path class="cls-1" d="M754.61,189.33v-9a35.49,35.49,0,0,0,9-2.51,10.76,10.76,0,0,0,5-4.42,17.8,17.8,0,0,0,2-7.27q.4-4.41.41-10.93V19.82H760q-8.14,0-12.49,1.9a19.48,19.48,0,0,0-7.54,6,36.79,36.79,0,0,0-5.5,10.94q-2.31,6.85-3.81,13H712.1V3.92H872V51.6H853.36q-2.58-9.24-4.07-13.58a39.3,39.3,0,0,0-3.33-7.4,26.17,26.17,0,0,0-3.87-5.1,18.33,18.33,0,0,0-4.35-3.26A19.89,19.89,0,0,0,832,20.43a53.68,53.68,0,0,0-9-.61h-9.78V155.24a109.18,109.18,0,0,0,.41,10.93,19.06,19.06,0,0,0,1.5,6.05,11.52,11.52,0,0,0,2.65,3.73,14.59,14.59,0,0,0,4.34,2.59,32.05,32.05,0,0,0,7.54,1.83v9Z"/><path class="cls-1" d="M967.46,191.51q-39.93,0-60-23.37t-20-69.95q0-30.56,9.72-52.23T925.76,13q18.88-11.26,45-11.27,40.6,0,61,23.3t20.37,69.2q0,25.68-6,44.08t-17.19,30.22a67.23,67.23,0,0,1-26.69,17.39A102.43,102.43,0,0,1,967.46,191.51Zm-36.81-97q0,41,9.85,61.06t30.08,20q10.47,0,17.8-5.63a40.05,40.05,0,0,0,11.88-15.76,88.68,88.68,0,0,0,6.52-24,217.51,217.51,0,0,0,2-30.43q0-27-4.28-45.3T991.57,27q-8.62-9.3-22.07-9.31-19.69,0-29.28,18.82T930.65,94.52Z"/><path class="cls-1" d="M1150.83,189.33h-71.31v-9a38.56,38.56,0,0,0,8-2.92,10.07,10.07,0,0,0,4.34-4.35,19.74,19.74,0,0,0,1.84-7.06q.4-4.28.4-10.8V38.15q0-6.37-.34-10.73a18.24,18.24,0,0,0-1.76-7.06A11,11,0,0,0,1087.6,16a33.21,33.21,0,0,0-8.08-3.06v-9h79.19a140.78,140.78,0,0,1,27.23,2.25A68.72,68.72,0,0,1,1205.57,13a40.89,40.89,0,0,1,12,9.58,41.42,41.42,0,0,1,7.54,13.45,54.64,54.64,0,0,1,2.65,17.86q0,13.32-4.68,22.82a45.75,45.75,0,0,1-12.64,15.82q-7.94,6.32-21.25,11.89v1.36a47.58,47.58,0,0,1,16.63,11.61,75.29,75.29,0,0,1,11.89,18.41l8.56,18.47q5.7,12.36,11.34,18.54a23.16,23.16,0,0,0,13.38,7.54v9h-52.3q-7.87-10.86-17.79-32.32l-10.59-23.23q-4.77-10.32-8.15-14.67a19.47,19.47,0,0,0-7-6q-3.6-1.62-11.07-1.63h-7.88v43.74q0,10.19.95,14.26a12.28,12.28,0,0,0,3.67,6.52q2.71,2.44,10,4.35ZM1136.16,20.09V95.61h13.45q10.86,0,17.93-2.92a27.14,27.14,0,0,0,11.2-8.15,29.71,29.71,0,0,0,5.71-12.29A71.86,71.86,0,0,0,1186,56.76q0-18.46-8.69-27.71t-25.81-9.23Q1139.83,19.82,1136.16,20.09Z"/><path class="cls-1" d="M11.77,238.09h15c16.73,0,27.09,8.66,27.09,27.16s-10.36,27.61-26.5,27.61H11.77Zm14.36,46c10.21,0,16.57-5.48,16.57-18.8s-6.36-18.42-16.57-18.42H22.72v37.22Z"/><path class="cls-1" d="M62.68,238.83c0-3.55,2.74-5.92,6.51-5.92s6.44,2.37,6.44,5.92-2.74,5.92-6.44,5.92S62.68,242.24,62.68,238.83Zm1,12.58h10.8v41.45H63.72Z"/><path class="cls-1" d="M82.29,288.05l5-6.81c3.7,2.88,7.25,4.51,11.1,4.51,4.14,0,6-1.77,6-4.36,0-3.11-4.29-4.52-8.66-6.22-5.25-2-11.32-5.18-11.32-12.06,0-7.48,6.07-12.73,15.39-12.73a23.21,23.21,0,0,1,14.14,5.1L109,262.07c-3-2.07-5.84-3.55-9-3.55-3.7,0-5.48,1.63-5.48,4,0,3,4.07,4.15,8.44,5.78,5.48,2.07,11.55,4.81,11.55,12.5,0,7.26-5.7,13.1-16.51,13.1A26.12,26.12,0,0,1,82.29,288.05Z"/><path class="cls-1" d="M122.69,278.35V260h-5.84v-8.07l6.36-.52,1.26-11.1h9.1v11.1h10.22V260H133.57v18.35c0,4.74,1.93,7,5.63,7a12.22,12.22,0,0,0,4.07-.89l1.77,7.92a26.76,26.76,0,0,1-8.73,1.55C126.47,293.89,122.69,287.68,122.69,278.35Z"/><path class="cls-1" d="M152.22,251.41h8.88l.74,7.33h.3c3-5.4,7.47-8.36,11.76-8.36a11.7,11.7,0,0,1,4.89.89l-1.93,9.39a13.14,13.14,0,0,0-4.29-.66c-3.26,0-7.18,2.15-9.55,8.14v24.72h-10.8Z"/><path class="cls-1" d="M183.45,238.83c0-3.55,2.74-5.92,6.51-5.92s6.44,2.37,6.44,5.92-2.74,5.92-6.44,5.92S183.45,242.24,183.45,238.83Zm1,12.58h10.81v41.45H184.48Z"/><path class="cls-1" d="M216.67,288.49h-.22l-1,4.37H207V233.8h10.8v14.88l-.22,6.66c3.26-3,7.4-5,11.47-5,10.21,0,16.36,8.36,16.36,21,0,14.28-8.51,22.49-17.62,22.49C224.07,293.89,220.08,292,216.67,288.49Zm17.54-16.87c0-7.92-2.51-12.29-8.21-12.29-2.82,0-5.33,1.41-8.22,4.3v18.2a11.48,11.48,0,0,0,7.55,3.11C230.36,284.94,234.21,280.65,234.21,271.62Z"/><path class="cls-1" d="M254.19,277.32V251.41h10.88v24.5c0,6.44,1.77,8.66,5.77,8.66,3.41,0,5.62-1.48,8.44-5.18v-28h10.88v41.45h-8.88l-.82-5.92h-.29c-3.56,4.21-7.55,6.95-13.25,6.95C258,293.89,254.19,287.68,254.19,277.32Z"/><path class="cls-1" d="M300.74,238.83c0-3.55,2.73-5.92,6.51-5.92s6.44,2.37,6.44,5.92-2.74,5.92-6.44,5.92S300.74,242.24,300.74,238.83Zm1,12.58h10.81v41.45H301.77Z"/><path class="cls-1" d="M321.9,272.21c0-13.54,8.43-21.83,17.39-21.83,4.66,0,7.55,1.77,10.51,4.51l-.45-6.51V233.8h10.88v59.06h-8.8l-.89-4.3h-.22c-3,3-7.18,5.33-11.47,5.33C328.56,293.89,321.9,285.75,321.9,272.21Zm27.45,8.44V262.44a11,11,0,0,0-7.69-3.11c-4.66,0-8.59,4.44-8.59,12.73,0,8.59,3.11,12.88,8.59,12.88C344.54,284.94,347,283.75,349.35,280.65Z"/><path class="cls-1" d="M369.33,272.21c0-13.84,9.55-21.83,19.91-21.83s19.91,8,19.91,21.83-9.55,21.68-19.91,21.68S369.33,285.9,369.33,272.21Zm28.72,0c0-7.85-3.19-12.95-8.81-12.95s-8.81,5.1-8.81,12.95,3.18,12.8,8.81,12.8S398.05,280,398.05,272.21Z"/><path class="cls-1" d="M418.25,251.41h8.88l.74,7.33h.29c3-5.4,7.48-8.36,11.77-8.36a11.69,11.69,0,0,1,4.88.89l-1.92,9.39a13.18,13.18,0,0,0-4.29-.66c-3.26,0-7.18,2.15-9.55,8.14v24.72h-10.8Z"/><path class="cls-1" d="M446.14,281.61c0-8.88,7.18-13.54,23.83-15.32-.15-4.07-1.92-7.18-7-7.18-3.85,0-7.55,1.7-11.4,3.92l-3.92-7.18c4.89-3,10.81-5.47,17.32-5.47,10.51,0,15.91,6.29,15.91,18.28v24.2H472l-.81-4.44h-.23c-3.62,3.1-7.77,5.47-12.5,5.47C451,293.89,446.14,288.64,446.14,281.61Zm23.83-.3V273c-10.06,1.33-13.47,4.07-13.47,7.77,0,3.26,2.3,4.66,5.48,4.66S467.38,283.9,470,281.31Z"/><path class="cls-1" d="M506.38,272.21c0-13.54,8.43-21.83,17.39-21.83,4.66,0,7.55,1.77,10.51,4.51l-.45-6.51V233.8h10.88v59.06h-8.8l-.89-4.3h-.22c-3,3-7.18,5.33-11.47,5.33C513,293.89,506.38,285.75,506.38,272.21Zm27.45,8.44V262.44a11,11,0,0,0-7.69-3.11c-4.67,0-8.59,4.44-8.59,12.73,0,8.59,3.11,12.88,8.59,12.88C529,284.94,531.47,283.75,533.83,280.65Z"/><path class="cls-1" d="M553.81,272.21c0-13.47,9.4-21.83,19.32-21.83,11.39,0,17.31,8.36,17.31,19.83a20.59,20.59,0,0,1-.51,5H564.39c.89,6.81,5.33,10.36,11.47,10.36a17.09,17.09,0,0,0,9.33-2.89l3.7,6.66a26.1,26.1,0,0,1-14.51,4.59C562.84,293.89,553.81,285.83,553.81,272.21ZM581.12,268c0-5.62-2.52-9.18-7.85-9.18-4.36,0-8.21,3.11-9,9.18Z"/><path class="cls-1" d="M616.19,233.8H627v14.88l-.45,7.77c3.33-3.11,7.4-6.07,13-6.07,8.95,0,12.8,6.21,12.8,16.65v25.83H641.5v-24.5c0-6.36-1.77-8.66-5.84-8.66-3.41,0-5.55,1.63-8.66,4.66v28.5H616.19Z"/><path class="cls-1" d="M662.52,238.83c0-3.55,2.73-5.92,6.51-5.92s6.44,2.37,6.44,5.92-2.74,5.92-6.44,5.92S662.52,242.24,662.52,238.83Zm1,12.58h10.81v41.45H663.55Z"/><path class="cls-1" d="M683.68,272.21c0-13.54,8.44-21.83,17.39-21.83,4.66,0,7.55,1.77,10.51,4.51l-.45-6.51V233.8H722v59.06h-8.8l-.89-4.3h-.22c-3,3-7.18,5.33-11.47,5.33C690.34,293.89,683.68,285.75,683.68,272.21Zm27.45,8.44V262.44a11,11,0,0,0-7.69-3.11c-4.66,0-8.59,4.44-8.59,12.73,0,8.59,3.11,12.88,8.59,12.88C706.32,284.94,708.77,283.75,711.13,280.65Z"/><path class="cls-1" d="M733.7,251.41h8.88l.74,7.33h.3c3-5.4,7.47-8.36,11.77-8.36a11.69,11.69,0,0,1,4.88.89l-1.92,9.39a13.2,13.2,0,0,0-4.3-.66c-3.25,0-7.17,2.15-9.54,8.14v24.72H733.7Z"/><path class="cls-1" d="M762.49,272.21c0-13.84,9.54-21.83,19.91-21.83s19.9,8,19.9,21.83-9.54,21.68-19.9,21.68S762.49,285.9,762.49,272.21Zm28.71,0c0-7.85-3.18-12.95-8.8-12.95s-8.81,5.1-8.81,12.95,3.18,12.8,8.81,12.8S791.2,280,791.2,272.21Z"/><path class="cls-1" d="M811.4,251.41h8.88l.74,5.48h.3c3.63-3.55,7.84-6.51,13.47-6.51,9,0,12.8,6.21,12.8,16.65v25.83H836.71v-24.5c0-6.36-1.77-8.66-5.84-8.66-3.41,0-5.55,1.63-8.66,4.66v28.5H811.4Z"/><path class="cls-1" d="M856.24,272.21c0-13.47,9.4-21.83,19.32-21.83,11.4,0,17.32,8.36,17.32,19.83a20,20,0,0,1-.52,5H866.83c.88,6.81,5.33,10.36,11.47,10.36a17.08,17.08,0,0,0,9.32-2.89l3.7,6.66a26.07,26.07,0,0,1-14.5,4.59C865.27,293.89,856.24,285.83,856.24,272.21ZM883.55,268c0-5.62-2.51-9.18-7.84-9.18-4.37,0-8.22,3.11-9,9.18Z"/><path class="cls-1" d="M901.38,277.32V251.41h10.88v24.5c0,6.44,1.78,8.66,5.78,8.66,3.4,0,5.62-1.48,8.43-5.18v-28h10.88v41.45h-8.88l-.81-5.92h-.3c-3.55,4.21-7.55,6.95-13.25,6.95C905.23,293.89,901.38,287.68,901.38,277.32Z"/><path class="cls-1" d="M949,251.41h8.88l.74,5.55h.29c3.48-3.62,7.33-6.58,12.73-6.58,5.92,0,9.4,2.66,11.4,7.25,3.77-4,7.77-7.25,13.17-7.25,8.81,0,12.88,6.21,12.88,16.65v25.83H998.18v-24.5c0-6.36-1.85-8.66-5.77-8.66q-3.55,0-8,4.66v28.5H973.54v-24.5c0-6.36-1.85-8.66-5.78-8.66q-3.54,0-8,4.66v28.5H949Z"/><path class="cls-1" d="M1018.23,281.61c0-8.88,7.18-13.54,23.83-15.32-.15-4.07-1.93-7.18-7-7.18-3.85,0-7.55,1.7-11.4,3.92l-3.92-7.18c4.88-3,10.8-5.47,17.32-5.47,10.51,0,15.91,6.29,15.91,18.28v24.2h-8.88l-.82-4.44H1043c-3.63,3.1-7.77,5.47-12.51,5.47C1023.11,293.89,1018.23,288.64,1018.23,281.61Zm23.83-.3V273c-10.07,1.33-13.47,4.07-13.47,7.77,0,3.26,2.29,4.66,5.48,4.66S1039.47,283.9,1042.06,281.31Zm-9.77-41.81,12.58-15,7.4,7.25-14.65,13Z"/><path class="cls-1" d="M1064.18,278.35V260h-5.84v-8.07l6.36-.52,1.26-11.1h9.1v11.1h10.21V260h-10.21v18.35c0,4.74,1.93,7,5.63,7a12.22,12.22,0,0,0,4.07-.89l1.77,7.92a26.76,26.76,0,0,1-8.73,1.55C1068,293.89,1064.18,287.68,1064.18,278.35Z"/><path class="cls-1" d="M1092.67,238.83c0-3.55,2.74-5.92,6.52-5.92s6.43,2.37,6.43,5.92-2.73,5.92-6.43,5.92S1092.67,242.24,1092.67,238.83Zm1,12.58h10.8v41.45h-10.8Z"/><path class="cls-1" d="M1113.61,272.21c0-13.84,9.92-21.83,21.17-21.83a18.1,18.1,0,0,1,12.06,4.59l-5.18,7c-2.07-1.78-4-2.74-6.36-2.74-6.29,0-10.59,5.1-10.59,12.95S1129,285,1135,285a12.86,12.86,0,0,0,8.07-3.33l4.29,7.18a20.53,20.53,0,0,1-13.54,5C1122.35,293.89,1113.61,285.9,1113.61,272.21Z"/><path class="cls-1" d="M1150.39,272.21c0-13.84,9.55-21.83,19.91-21.83s19.91,8,19.91,21.83-9.55,21.68-19.91,21.68S1150.39,285.9,1150.39,272.21Zm28.71,0c0-7.85-3.18-12.95-8.8-12.95s-8.81,5.1-8.81,12.95,3.18,12.8,8.81,12.8S1179.1,280,1179.1,272.21Z"/><path class="cls-1" d="M1195,288.05l5-6.81c3.7,2.88,7.25,4.51,11.1,4.51,4.15,0,6-1.77,6-4.36,0-3.11-4.3-4.52-8.66-6.22-5.26-2-11.33-5.18-11.33-12.06,0-7.48,6.07-12.73,15.4-12.73a23.18,23.18,0,0,1,14.13,5.1l-4.88,6.59c-3-2.07-5.85-3.55-9-3.55-3.7,0-5.47,1.63-5.47,4,0,3,4.07,4.15,8.43,5.78,5.48,2.07,11.55,4.81,11.55,12.5,0,7.26-5.7,13.1-16.5,13.1A26.15,26.15,0,0,1,1195,288.05Z"/><path class="cls-1" d="M225.81,397.49l2-8.36a11.2,11.2,0,0,0,2.88.52c4.22,0,6.59-2.66,7.77-6.29l.75-2.44-16.14-40.71h11l6.58,19.25c1.26,3.7,2.3,7.69,3.48,11.69h.37c1-3.85,2-7.85,3-11.69l5.7-19.25h10.43l-14.72,42.71c-3.63,9.76-8.07,15.39-17.32,15.39A17.51,17.51,0,0,1,225.81,397.49Z"/><path class="cls-1" d="M288,326.89h12.14l9.32,25.61c1.19,3.4,2.22,7,3.33,10.58h.38c1.18-3.55,2.14-7.18,3.33-10.58l9.1-25.61h12.13v54.77h-10V358.79c0-5.18.82-12.8,1.34-18h-.3l-4.44,12.87-8.44,23h-6.29l-8.51-23-4.36-12.87h-.3c.52,5.18,1.41,12.8,1.41,18v22.87H288Z"/><path class="cls-1" d="M347.76,361c0-13.84,9.55-21.83,19.91-21.83s19.91,8,19.91,21.83-9.55,21.68-19.91,21.68S347.76,374.7,347.76,361Zm28.71,0c0-7.85-3.18-12.95-8.8-12.95s-8.81,5.1-8.81,12.95,3.18,12.8,8.81,12.8S376.47,368.78,376.47,361Z"/><path class="cls-1" d="M396.16,367.15V348.8h-5.85v-8.07l6.36-.52,1.26-11.1H407v11.1h10.22v8.59H407v18.35c0,4.74,1.93,7,5.63,7a12.22,12.22,0,0,0,4.07-.89l1.77,7.92a26.7,26.7,0,0,1-8.73,1.55C399.93,382.69,396.16,376.48,396.16,367.15Z"/><path class="cls-1" d="M421.69,361c0-13.84,9.54-21.83,19.9-21.83s19.91,8,19.91,21.83-9.55,21.68-19.91,21.68S421.69,374.7,421.69,361Zm28.71,0c0-7.85-3.18-12.95-8.81-12.95s-8.8,5.1-8.8,12.95,3.18,12.8,8.8,12.8S450.4,368.78,450.4,361Z"/><path class="cls-1" d="M470.6,340.21h8.88l.74,7.33h.3c3-5.4,7.47-8.36,11.76-8.36a11.7,11.7,0,0,1,4.89.89l-1.93,9.39a13.14,13.14,0,0,0-4.29-.66c-3.26,0-7.18,2.14-9.55,8.14v24.72H470.6Z"/><path class="cls-1" d="M499.38,361c0-13.47,9.4-21.83,19.32-21.83,11.4,0,17.32,8.36,17.32,19.83a20.49,20.49,0,0,1-.52,5H510c.88,6.81,5.32,10.36,11.47,10.36a17.08,17.08,0,0,0,9.32-2.89l3.7,6.66a26.07,26.07,0,0,1-14.5,4.59C508.41,382.69,499.38,374.63,499.38,361Zm27.31-4.22c0-5.62-2.51-9.18-7.84-9.18-4.37,0-8.22,3.11-9,9.18Z"/><path class="cls-1" d="M541.05,376.85l5-6.81c3.71,2.88,7.26,4.51,11.11,4.51,4.14,0,6-1.77,6-4.36,0-3.11-4.29-4.52-8.66-6.22-5.25-2-11.32-5.18-11.32-12.06,0-7.48,6.07-12.73,15.39-12.73a23.21,23.21,0,0,1,14.14,5.1l-4.89,6.59c-3-2.07-5.84-3.55-9-3.55-3.7,0-5.48,1.63-5.48,4,0,3,4.07,4.15,8.44,5.78,5.47,2.07,11.54,4.81,11.54,12.5,0,7.26-5.7,13.1-16.5,13.1A26.12,26.12,0,0,1,541.05,376.85Z"/><path class="cls-1" d="M579.67,391.5c5.7-2.15,8.88-5.85,8.88-10.14h-.66c-3.55,0-6.81-2.29-6.81-6.44,0-3.92,3.18-6.44,7-6.44,5,0,7.85,4,7.85,10.73,0,8.66-5.11,15.25-14,18.21Z"/><path class="cls-1" d="M619.71,374.7l6.29-7.55c3.92,3.63,9.1,6.07,13.91,6.07,5.7,0,8.73-2.44,8.73-6.29,0-4.07-3.33-5.33-8.21-7.4l-7.33-3.11c-5.55-2.29-11.1-6.73-11.1-14.73,0-8.95,7.85-15.83,19-15.83a24.31,24.31,0,0,1,17.17,7l-5.55,6.88A17.46,17.46,0,0,0,641,335.26c-4.81,0-7.92,2.14-7.92,5.77,0,3.92,3.92,5.33,8.58,7.18l7.18,3c6.66,2.74,11,7,11,14.88,0,8.95-7.48,16.57-20.13,16.57A29.16,29.16,0,0,1,619.71,374.7Z"/><path class="cls-1" d="M668,375.59a6.78,6.78,0,1,1,6.73,7.1A6.81,6.81,0,0,1,668,375.59Z"/><path class="cls-1" d="M719.24,367.6H701.48l-3.85,14.06h-11.1l17.54-54.77h12.87l17.62,54.77H723.09Zm-2.37-8.52-1.63-6c-1.7-5.7-3.18-12-4.81-17.91h-.29c-1.41,6-3,12.21-4.67,17.91l-1.62,6Z"/><path class="cls-1" d="M739.51,375.59a6.78,6.78,0,1,1,6.74,7.1A6.81,6.81,0,0,1,739.51,375.59Z"/><path class="cls-1" d="M778.58,361c0-13.54,8.44-21.83,17.39-21.83,4.67,0,7.55,1.77,10.51,4.51l-.44-6.51V322.6h10.88v59.06h-8.81l-.89-4.3H807c-3,3-7.18,5.33-11.47,5.33C785.24,382.69,778.58,374.55,778.58,361ZM806,369.45V351.24a11,11,0,0,0-7.7-3.11c-4.66,0-8.58,4.44-8.58,12.73,0,8.59,3.11,12.88,8.58,12.88C801.23,373.74,803.67,372.55,806,369.45Z"/><path class="cls-1" d="M826,361c0-13.47,9.4-21.83,19.31-21.83,11.4,0,17.32,8.36,17.32,19.83a20,20,0,0,1-.52,5H836.6c.89,6.81,5.33,10.36,11.47,10.36a17.08,17.08,0,0,0,9.32-2.89l3.7,6.66a26.07,26.07,0,0,1-14.5,4.59C835,382.69,826,374.63,826,361Zm27.3-4.22c0-5.62-2.51-9.18-7.84-9.18-4.37,0-8.22,3.11-9,9.18Z"/><path class="cls-1" d="M886.55,354.5c0-18.06,11.62-28.64,25.45-28.64a22.33,22.33,0,0,1,16.06,7l-5.77,6.95c-2.74-2.66-5.92-4.58-10.06-4.58-8.29,0-14.51,7.1-14.51,18.87s5.63,19.09,14.28,19.09c4.67,0,8.37-2.22,11.33-5.4l5.77,6.81a22.17,22.17,0,0,1-17.47,8.06C897.8,382.69,886.55,372.78,886.55,354.5Z"/><path class="cls-1" d="M936.42,375.59a6.78,6.78,0,1,1,6.74,7.1A6.81,6.81,0,0,1,936.42,375.59Z"/><path class="cls-1" d="M948.71,326.89h11.47l7.25,26.64c1.7,6.07,2.81,11.55,4.59,17.69h.37c1.7-6.14,3-11.62,4.66-17.69l7.11-26.64h11.1l-16.8,54.77h-13Z"/><path class="cls-1" d="M993.92,375.59a6.78,6.78,0,1,1,6.74,7.1A6.81,6.81,0,0,1,993.92,375.59Z"/></svg>