<svg id="facebook_color" xmlns="http://www.w3.org/2000/svg" width="40" height="40" viewBox="0 0 40 40">
  <path id="Trazado_45" data-name="Trazado 45" d="M35,0H5A5.005,5.005,0,0,0,0,5V35a5.005,5.005,0,0,0,5,5H35a5.005,5.005,0,0,0,5-5V5A5.005,5.005,0,0,0,35,0Z" fill="#1976d2"/>
  <path id="Trazado_46" data-name="Trazado 46" d="M210.75,108.5H204.5v-5c0-1.38,1.12-1.25,2.5-1.25h2.5V96h-5a7.5,7.5,0,0,0-7.5,7.5v5h-5v6.25h5V128.5h7.5V114.75h3.75Z" transform="translate(-177 -88.5)" fill="#fafafa"/>
</svg>
