<svg id="Grupo_87" data-name="Grupo 87" xmlns="http://www.w3.org/2000/svg" width="35" height="35" viewBox="0 0 35 35">
  <defs>
    <style>
      .cls-1 {
        fill: #fff;
      }

      .cls-2 {
        fill: #0077b7;
      }
    </style>
  </defs>
  <rect id="Rectángulo_266" data-name="Rectángulo 266" class="cls-1" width="30" height="30" transform="translate(3 3)"/>
  <path id="linkedin" class="cls-2" d="M31.834,0H3.166A3.166,3.166,0,0,0,0,3.166V31.834A3.166,3.166,0,0,0,3.166,35H31.834A3.166,3.166,0,0,0,35,31.834V3.166A3.166,3.166,0,0,0,31.834,0Zm-21,30.221a.921.921,0,0,1-.921.921H5.987a.921.921,0,0,1-.921-.921V13.78a.921.921,0,0,1,.921-.921H9.909a.921.921,0,0,1,.921.921ZM7.948,11.309a3.726,3.726,0,1,1,3.726-3.726A3.726,3.726,0,0,1,7.948,11.309ZM31.327,30.3a.847.847,0,0,1-.847.847H26.271a.847.847,0,0,1-.847-.847V22.584c0-1.15.337-5.041-3.006-5.041-2.594,0-3.12,2.663-3.225,3.858V30.3a.847.847,0,0,1-.847.847h-4.07a.847.847,0,0,1-.847-.847V13.706a.847.847,0,0,1,.847-.847h4.07a.847.847,0,0,1,.847.847v1.434c.962-1.443,2.391-2.557,5.434-2.557,6.739,0,6.7,6.3,6.7,9.755V30.3Z"/>
</svg>
