<svg xmlns="http://www.w3.org/2000/svg" width="30" height="22.5" viewBox="0 0 30 22.5">
  <g id="mail_white" transform="translate(0 -64)">
    <g id="Grupo_73" data-name="Grupo 73" transform="translate(0 64)">
      <g id="Grupo_72" data-name="Grupo 72" transform="translate(0 0)">
        <path id="Trazado_41" data-name="Trazado 41" d="M7.135,65.826C11.252,69.313,18.477,75.447,20.6,77.36a1.254,1.254,0,0,0,1.815,0c2.125-1.915,9.35-8.05,13.467-11.537a.625.625,0,0,0,.088-.862A2.482,2.482,0,0,0,34.008,64h-25a2.482,2.482,0,0,0-1.962.963A.625.625,0,0,0,7.135,65.826Z" transform="translate(-6.509 -64)" fill="#fff"/>
        <path id="Trazado_42" data-name="Trazado 42" d="M348.156,126.47a.622.622,0,0,0-.667.09c-2.7,2.286-6.249,5.306-8.929,7.61a.625.625,0,0,0,.017.961c2.49,1.994,6.241,4.737,8.951,6.686a.625.625,0,0,0,.99-.507V127.037A.625.625,0,0,0,348.156,126.47Z" transform="translate(-318.519 -122.755)" fill="#fff"/>
        <path id="Trazado_43" data-name="Trazado 43" d="M.99,141.827c2.71-1.949,6.462-4.692,8.951-6.686a.625.625,0,0,0,.017-.961c-2.679-2.3-6.233-5.325-8.929-7.61A.625.625,0,0,0,0,127.045V141.32a.625.625,0,0,0,.99.507Z" transform="translate(0 -122.763)" fill="#fff"/>
        <path id="Trazado_44" data-name="Trazado 44" d="M37.352,292.453c-2.617-1.872-7.437-5.362-10.314-7.7a.626.626,0,0,0-.8.014c-.565.493-1.037.908-1.372,1.209a2.531,2.531,0,0,1-3.489,0c-.334-.3-.806-.717-1.371-1.208a.623.623,0,0,0-.8-.014c-2.867,2.327-7.693,5.822-10.314,7.7a.625.625,0,0,0-.094.934,2.5,2.5,0,0,0,1.827.8h25a2.507,2.507,0,0,0,1.828-.8.625.625,0,0,0-.094-.934Z" transform="translate(-8.118 -271.689)" fill="#fff"/>
      </g>
    </g>
  </g>
</svg>
