<svg xmlns="http://www.w3.org/2000/svg" xmlns:xlink="http://www.w3.org/1999/xlink" width="30" height="22.5" viewBox="0 0 30 22.5">
  <defs>
    <linearGradient id="linear-gradient" x1="-0.134" y1="1.677" x2="-0.095" y2="1.621" gradientUnits="objectBoundingBox">
      <stop offset="0" stop-opacity="0.2"/>
      <stop offset="1" stop-opacity="0"/>
    </linearGradient>
    <linearGradient id="linear-gradient-2" x1="-0.093" y1="1.501" x2="-0.043" y2="1.47" gradientUnits="objectBoundingBox">
      <stop offset="0" stop-color="#fff" stop-opacity="0.2"/>
      <stop offset="1" stop-color="#fff" stop-opacity="0"/>
    </linearGradient>
  </defs>
  <g id="mail_BW" transform="translate(0 -64)">
    <path id="Trazado_52" data-name="Trazado 52" d="M27.5,64H2.5A2.5,2.5,0,0,0,0,66.5V84a2.5,2.5,0,0,0,2.5,2.5h25A2.5,2.5,0,0,0,30,84V66.5A2.5,2.5,0,0,0,27.5,64Z" fill="#091a2b"/>
    <path id="Trazado_53" data-name="Trazado 53" d="M320.322,109.819c3.247-2.953,8.254-7.533,9.911-9.05a1.208,1.208,0,0,1,.07.346v17.5a1.207,1.207,0,0,1-.066.326C328.567,117.347,323.558,112.6,320.322,109.819Z" transform="translate(-301.553 -34.615)" fill="#f2f2f2"/>
    <path id="Trazado_54" data-name="Trazado 54" d="M63.488,85.333a1.19,1.19,0,0,1,.26.053c-2.164,1.981-9.341,8.546-11.853,10.809a1.254,1.254,0,0,1-1.815,0c-2.511-2.262-9.688-8.828-11.852-10.809a1.194,1.194,0,0,1,.26-.053h25Z" transform="translate(-35.988 -20.083)" fill="#fafafa"/>
    <path id="Trazado_55" data-name="Trazado 55" d="M21.4,118.942a1.2,1.2,0,0,1-.066-.326v-17.5a1.207,1.207,0,0,1,.07-.345c1.657,1.516,6.664,6.1,9.911,9.05C28.079,112.6,23.07,117.35,21.4,118.942Z" transform="translate(-20.084 -34.616)" fill="#f2f2f2"/>
    <path id="Trazado_56" data-name="Trazado 56" d="M38.139,278.882a1.2,1.2,0,0,1-.282-.057c1.725-1.645,6.766-6.421,9.946-9.141.414.376.793.719,1.092.988a2.5,2.5,0,0,0,3.488,0c.3-.269.678-.612,1.092-.988,3.18,2.72,8.22,7.5,9.946,9.141a1.194,1.194,0,0,1-.282.057Z" transform="translate(-35.639 -193.632)" fill="#fafafa"/>
    <path id="Trazado_57" data-name="Trazado 57" d="M31.977,110.22c.156-.136.312-.272.461-.4-3.247-2.953-8.255-7.534-9.911-9.05Zm17.91-9.45c-1.657,1.517-6.664,6.1-9.911,9.05,3.236,2.78,8.245,7.528,9.915,9.121a1.2,1.2,0,0,0,.066-.326v-17.5A1.21,1.21,0,0,0,49.887,100.77ZM37.951,111.656a2.5,2.5,0,0,1-3.488,0c-.3-.269-.677-.612-1.092-.988-.164.14-.335.289-.508.439l8.759,8.759h7.085a1.2,1.2,0,0,0,.282-.057c-1.726-1.645-6.766-6.421-9.946-9.141C38.628,111.043,38.249,111.387,37.951,111.656Z" transform="translate(-21.207 -34.616)" fill="url(#linear-gradient)"/>
    <path id="Trazado_58" data-name="Trazado 58" d="M27.5,64H2.5A2.5,2.5,0,0,0,0,66.5V84a2.5,2.5,0,0,0,2.5,2.5h25A2.5,2.5,0,0,0,30,84V66.5A2.5,2.5,0,0,0,27.5,64Z" fill="url(#linear-gradient-2)"/>
  </g>
</svg>
