<svg id="mail" xmlns="http://www.w3.org/2000/svg" xmlns:xlink="http://www.w3.org/1999/xlink" width="30.523" height="20" viewBox="0 0 30.523 20">
  <defs>
    <style>
      .cls-1 {
        fill: #091a2b;
      }

      .cls-2 {
        fill: #f2f2f2;
      }

      .cls-3 {
        fill: #fafafa;
      }

      .cls-4 {
        fill: url(#linear-gradient);
      }

      .cls-5 {
        fill: url(#linear-gradient-2);
      }
    </style>
    <linearGradient id="linear-gradient" x1="-0.134" y1="1.677" x2="-0.095" y2="1.621" gradientUnits="objectBoundingBox">
      <stop offset="0" stop-opacity="0.2"/>
      <stop offset="1" stop-opacity="0"/>
    </linearGradient>
    <linearGradient id="linear-gradient-2" x1="-0.093" y1="1.501" x2="-0.043" y2="1.47" gradientUnits="objectBoundingBox">
      <stop offset="0" stop-color="#fff" stop-opacity="0.2"/>
      <stop offset="1" stop-color="#fff" stop-opacity="0"/>
    </linearGradient>
  </defs>
  <path id="Trazado_52" data-name="Trazado 52" class="cls-1" d="M27.979,64H2.544A2.4,2.4,0,0,0,0,66.222V81.778A2.4,2.4,0,0,0,2.544,84H27.979a2.4,2.4,0,0,0,2.544-2.222V66.222A2.4,2.4,0,0,0,27.979,64Z" transform="translate(0 -64)"/>
  <path id="Trazado_53" data-name="Trazado 53" class="cls-2" d="M320.322,108.814c3.3-2.625,8.4-6.7,10.084-8.045a.956.956,0,0,1,.071.307v15.556a.956.956,0,0,1-.067.29C328.71,115.505,323.615,111.285,320.322,108.814Z" transform="translate(-301.226 -98.854)"/>
  <path id="Trazado_54" data-name="Trazado 54" class="cls-3" d="M63.928,85.333a1.365,1.365,0,0,1,.264.047c-2.2,1.761-9.5,7.6-12.059,9.608a1.406,1.406,0,0,1-1.846,0c-2.555-2.011-9.857-7.847-12.059-9.608a1.371,1.371,0,0,1,.265-.047H63.928Z" transform="translate(-35.949 -84.222)"/>
  <path id="Trazado_55" data-name="Trazado 55" class="cls-2" d="M21.4,116.923a.954.954,0,0,1-.067-.29V101.078a.956.956,0,0,1,.071-.307c1.685,1.348,6.78,5.42,10.084,8.044C28.2,111.287,23.1,115.508,21.4,116.923Z" transform="translate(-20.062 -98.856)"/>
  <path id="Trazado_56" data-name="Trazado 56" class="cls-3" d="M38.144,277.86a1.373,1.373,0,0,1-.287-.051c1.755-1.462,6.884-5.708,10.119-8.125.422.334.807.639,1.111.878a2.81,2.81,0,0,0,3.549,0l1.111-.879c3.235,2.418,8.363,6.663,10.119,8.125a1.372,1.372,0,0,1-.287.051Z" transform="translate(-35.6 -258.971)"/>
  <path id="Trazado_57" data-name="Trazado 57" class="cls-4" d="M32.142,109.17c.159-.121.318-.242.469-.356-3.3-2.625-8.4-6.7-10.084-8.044Zm18.222-8.4c-1.686,1.348-6.78,5.42-10.084,8.045,3.293,2.471,8.388,6.692,10.088,8.108a.954.954,0,0,0,.067-.29V101.077A.958.958,0,0,0,50.364,100.77ZM38.22,110.446a2.81,2.81,0,0,1-3.549,0c-.3-.239-.689-.544-1.111-.878-.167.124-.341.257-.517.39l8.912,7.786h7.208a1.37,1.37,0,0,0,.287-.051c-1.756-1.463-6.884-5.708-10.119-8.125C38.909,109.9,38.523,110.207,38.22,110.446Z" transform="translate(-21.184 -98.855)"/>
  <path id="Trazado_58" data-name="Trazado 58" class="cls-5" d="M27.979,64H2.544A2.4,2.4,0,0,0,0,66.222V81.778A2.4,2.4,0,0,0,2.544,84H27.979a2.4,2.4,0,0,0,2.544-2.222V66.222A2.4,2.4,0,0,0,27.979,64Z" transform="translate(0 -64)"/>
</svg>
