<svg xmlns="http://www.w3.org/2000/svg" width="15" height="20" viewBox="0 0 15 20">
  <defs>
    <style>
      .cls-1 {
        fill: #fff;
      }
    </style>
  </defs>
  <g id="money-bag_white" transform="translate(0 0)">
    <g id="Grupo_82" data-name="Grupo 82">
      <g id="Grupo_81" data-name="Grupo 81" transform="translate(0 0)">
        <path id="Trazado_63" data-name="Trazado 63" class="cls-1" d="M150.4,5.186a.417.417,0,0,0,.48.179,9.533,9.533,0,0,1,5.067-.044.414.414,0,0,0,.5-.239c.1-.242.212-.493.323-.746a8.58,8.58,0,0,0,.893-2.67A1.566,1.566,0,0,0,156,0a1.143,1.143,0,0,0-1.238.764.28.28,0,0,0-.024.069c-.045,0-.073-.02-.21-.176A1.7,1.7,0,0,0,153.083,0c-1.119,0-1.724,1.112-1.955,1.663-1.127.028-1.8.492-1.8,1.254a4.413,4.413,0,0,0,.869,1.943Z" transform="translate(-146)"/>
        <path id="Trazado_64" data-name="Trazado 64" class="cls-1" d="M77.333,156.707c-.019-4.432-1.037-7.373-5.833-7.373s-5.814,2.942-5.833,7.373A9.681,9.681,0,0,0,64,161c0,2.175,4.7,2.5,7.5,2.5s7.5-.325,7.5-2.5A9.681,9.681,0,0,0,77.333,156.707ZM71.5,156a1.247,1.247,0,0,1,.417,2.423v.077a.417.417,0,1,1-.833,0h-.417a.417.417,0,1,1,0-.833H71.5a.417.417,0,0,0,0-.833,1.247,1.247,0,0,1-.417-2.423v-.077a.417.417,0,1,1,.833,0h.417a.417.417,0,0,1,0,.833H71.5a.417.417,0,1,0,0,.833Z" transform="translate(-64 -143.501)"/>
      </g>
    </g>
  </g>
</svg>
