<svg xmlns="http://www.w3.org/2000/svg" viewBox="0 0 202.65 144.88"><defs><style>.cls-1,.cls-2,.cls-3,.cls-4,.cls-5,.cls-6{fill:none;stroke:#29598a;stroke-miterlimit:10;}.cls-1,.cls-2{stroke-width:3px;}.cls-2,.cls-5{stroke-linecap:round;}.cls-3,.cls-5{stroke-width:2px;}.cls-6{stroke-width:0;}</style></defs><title>Recurso 1</title><g id="Capa_2" data-name="Capa 2"><g id="Capa_1-2" data-name="Capa 1"><path class="cls-1" d="M107.33,4.46a71.26,71.26,0,0,1,40.38-.08"/><path class="cls-2" d="M112.26,141.34A70.79,70.79,0,0,1,100,7.11"/><path class="cls-2" d="M154.93,6.94a70.79,70.79,0,0,1-11.77,134.38"/><path class="cls-2" d="M136.18,10.86C164,14.54,185.75,36,189.06,64"/><path class="cls-2" d="M66.25,64a62,62,0,0,1,53.09-53.18"/><path class="cls-2" d="M119.39,133.67A62,62,0,0,1,66.25,80.48"/><path class="cls-2" d="M188.69,80.82c-3.3,28-24.81,49.23-52.55,52.85"/><path class="cls-3" d="M102.4,37.14a43.28,43.28,0,0,1,50.22-.22"/><path class="cls-3" d="M92.46,97.41a43.26,43.26,0,0,1,.22-50.6"/><path class="cls-3" d="M152.91,107.4a43.29,43.29,0,0,1-50.58-.07"/><path class="cls-3" d="M162.62,46.76a43.29,43.29,0,0,1,.07,50.91"/><circle class="cls-4" cx="127.76" cy="72.11" r="22"/><path class="cls-1" d="M118.74,69.8a9.18,9.18,0,1,1,.13,5.06"/><polyline class="cls-3" points="119.08 74.77 117.01 74.77 117.01 69.64 119.94 69.64 119.94 74.77 119.08 74.77"/><path class="cls-5" d="M89.51,46.17A44.83,44.83,0,0,1,102,33.71"/><path class="cls-5" d="M102,110.34A42.71,42.71,0,0,1,89.51,97.87"/><path class="cls-5" d="M165.77,98.24a43.25,43.25,0,0,1-12.46,12.46"/><path class="cls-5" d="M153.31,33.71a43.67,43.67,0,0,1,12.83,12.46"/><path class="cls-3" d="M166.14,46.17a48.79,48.79,0,0,0-22.73,10.27"/><path class="cls-3" d="M153.31,33.71a54.18,54.18,0,0,1-9.9,22.73"/><path class="cls-3" d="M165.77,98.24a71.81,71.81,0,0,1-8.06-2.57A71.4,71.4,0,0,1,143,88"/><path class="cls-3" d="M153.31,110.7A48.87,48.87,0,0,0,143,88"/><path class="cls-3" d="M102,110.34A48.4,48.4,0,0,1,112.25,87.6"/><path class="cls-3" d="M112.25,87.6a48,48,0,0,1-4,2.94,50.77,50.77,0,0,1-18.7,7.33"/><path class="cls-3" d="M102,33.71a41.06,41.06,0,0,0,10.27,22.73"/><path class="cls-3" d="M89.51,46.17a60.64,60.64,0,0,1,22.37,9.9"/><path class="cls-5" d="M147.44,90.54V88a3,3,0,0,1,.74-1.1,2.89,2.89,0,0,1,1.46-.73c7.7-.25,15-.86,22.73-1.1"/><path class="cls-5" d="M152.58,83.57,172.37,85"/><line class="cls-5" x1="173.84" y1="76.61" x2="153.31" y2="77.71"/><path class="cls-5" d="M173.84,67.81l-19.06,1.46"/><path class="cls-5" d="M153.31,66.71l20.53,1.09"/><line class="cls-5" x1="172.37" y1="59.37" x2="153.31" y2="60.84"/><line class="cls-5" x1="149.28" y1="57.91" x2="172.37" y2="59.37"/><path class="cls-3" d="M153.31,77.71a3.08,3.08,0,0,0-.73,5.86"/><path class="cls-5" d="M154.82,69.27a3,3,0,0,0,0,5.87c6.71.37,5.59.73,19,1.47-13.43-.74-12.31-1.1-19-1.47"/><path class="cls-3" d="M153.31,66.71a3.28,3.28,0,0,1-2.2-3.67,3.13,3.13,0,0,1,2.2-2.2"/><path class="cls-3" d="M149.28,57.91a2.92,2.92,0,0,1-1.47-1.47,3.74,3.74,0,0,1,.73-3.67"/><path class="cls-5" d="M146,52.41h-2.57a2.91,2.91,0,0,1-1.83-2.2c-.25-7.7-.86-15-1.1-22.73"/><path class="cls-5" d="M139,47.27c.49-6.72,1-13.07,1.47-19.79"/><line class="cls-5" x1="132.04" y1="26.01" x2="133.15" y2="46.54"/><path class="cls-5" d="M123.24,26l1.47,19.06"/><path class="cls-5" d="M122.14,46.54,123.24,26"/><line class="cls-5" x1="114.81" y1="27.48" x2="116.28" y2="46.54"/><line class="cls-5" x1="113.34" y1="50.57" x2="114.81" y2="27.48"/><path class="cls-3" d="M133.14,46.54a3.09,3.09,0,0,0,5.87.73"/><path class="cls-5" d="M124.71,45a3,3,0,0,0,5.87,0c.36-6.71.73-5.59,1.46-19-.73,13.43-1.1,12.31-1.46,19"/><path class="cls-3" d="M122.14,46.54a3.27,3.27,0,0,1-3.66,2.2,3.11,3.11,0,0,1-2.2-2.2"/><path class="cls-3" d="M113.35,50.57A2.92,2.92,0,0,1,111.88,52a3,3,0,0,1-3.3-.37"/><path class="cls-5" d="M107.85,90.54V87.6a2.91,2.91,0,0,0-2.2-1.83c-7.7-.24-15-.85-22.74-1.1"/><path class="cls-5" d="M102.71,83.2l-19.8,1.47"/><line class="cls-5" x1="81.45" y1="76.24" x2="101.98" y2="77.34"/><path class="cls-5" d="M81.45,67.44l19.06,1.47"/><path class="cls-5" d="M102,66.34l-20.53,1.1"/><line class="cls-5" x1="82.91" y1="59.01" x2="101.98" y2="60.47"/><line class="cls-5" x1="106.01" y1="57.54" x2="82.91" y2="59.01"/><path class="cls-3" d="M102,77.34a3.08,3.08,0,0,1,.73,5.86"/><path class="cls-5" d="M100.47,68.91a2.95,2.95,0,0,1,0,5.86c-6.71.37-5.6.74-19,1.47,13.42-.73,12.31-1.1,19-1.47"/><path class="cls-3" d="M102,66.34a3.28,3.28,0,0,0,2.2-3.67,3.15,3.15,0,0,0-2.2-2.2"/><path class="cls-3" d="M106,57.54a2.92,2.92,0,0,0,1.47-1.47,3.1,3.1,0,0,0-.73-3.3"/><path class="cls-5" d="M146,92h-2.57a2.9,2.9,0,0,0-1.1.74,3,3,0,0,0-.73,1.46c-.25,7.7-.86,15-1.1,22.74"/><path class="cls-5" d="M139,97.14c.49,6.72,1,13.07,1.47,19.8"/><line class="cls-5" x1="132.04" y1="118.4" x2="133.15" y2="97.87"/><path class="cls-5" d="M123.24,118.4l1.47-19.06"/><path class="cls-5" d="M122.14,97.87l1.1,20.53"/><line class="cls-5" x1="114.81" y1="116.94" x2="116.28" y2="97.87"/><line class="cls-5" x1="113.34" y1="93.84" x2="114.81" y2="116.94"/><path class="cls-3" d="M133.14,97.87a3.09,3.09,0,0,1,5.87-.73"/><path class="cls-5" d="M124.71,99.38a3,3,0,0,1,5.87,0c.36,6.71.73,5.6,1.46,19-.73-13.42-1.1-12.31-1.46-19"/><path class="cls-3" d="M122.14,97.87a3.27,3.27,0,0,0-3.66-2.2,3.11,3.11,0,0,0-2.2,2.2"/><path class="cls-3" d="M113.35,93.84a2.92,2.92,0,0,0-1.47-1.47,3,3,0,0,0-3.3.37"/><line class="cls-5" x1="169.81" y1="26.38" x2="169.81" y2="14.64"/><path class="cls-3" d="M166.87,24.27l.21-.71c.06-.22.11-.43.16-.63V14.55"/><path class="cls-4" d="M165,22.71a6,6,0,0,0,.92-.55,5.66,5.66,0,0,0,1.1-1.1"/><path class="cls-3" d="M169.81,14.64a1.3,1.3,0,1,0-2.57,0"/><line class="cls-3" x1="167.24" y1="17.58" x2="169.81" y2="17.58"/><line class="cls-5" x1="173.29" y1="29.86" x2="185.02" y2="29.86"/><path class="cls-3" d="M175.4,32.79c.23-.07.46-.14.71-.2s.42-.12.63-.16h8.37"/><path class="cls-4" d="M177,34.63a4.45,4.45,0,0,1,.55-.92,5.15,5.15,0,0,1,1.1-1.1"/><path class="cls-3" d="M185,29.86a1.3,1.3,0,1,1,0,2.57"/><line class="cls-3" x1="182.09" y1="32.43" x2="182.09" y2="29.86"/><line class="cls-5" x1="82" y1="29.86" x2="70.27" y2="29.86"/><path class="cls-3" d="M79.89,32.79c-.23-.07-.46-.14-.71-.2s-.42-.12-.63-.16H70.17"/><path class="cls-4" d="M78.33,34.63a4.94,4.94,0,0,0-.55-.92,5.15,5.15,0,0,0-1.1-1.1"/><path class="cls-3" d="M70.27,29.86a1.3,1.3,0,1,0,0,2.57"/><line class="cls-3" x1="73.2" y1="32.43" x2="73.2" y2="29.86"/><line class="cls-5" x1="85.48" y1="26.38" x2="85.48" y2="14.64"/><path class="cls-3" d="M88.41,24.27c-.07-.23-.14-.47-.2-.71s-.11-.43-.16-.63V14.55"/><path class="cls-4" d="M90.25,22.71a6,6,0,0,1-.92-.55,5.66,5.66,0,0,1-1.1-1.1"/><path class="cls-3" d="M85.48,14.64a1.3,1.3,0,1,1,2.57,0"/><line class="cls-3" x1="88.05" y1="17.58" x2="85.48" y2="17.58"/><line class="cls-5" x1="81.63" y1="114.19" x2="69.9" y2="114.19"/><path class="cls-3" d="M79.52,111.25l-.7.21-.64.16H69.81"/><path class="cls-4" d="M78,109.42a4.72,4.72,0,0,1-.55.92,5.16,5.16,0,0,1-1.1,1.1"/><path class="cls-3" d="M69.9,114.19a1.3,1.3,0,1,1,0-2.57"/><line class="cls-3" x1="72.83" y1="111.62" x2="72.83" y2="114.19"/><line class="cls-5" x1="173.66" y1="114.19" x2="185.39" y2="114.19"/><path class="cls-3" d="M175.77,111.25l.7.21.64.16h8.37"/><path class="cls-4" d="M177.32,109.42a6,6,0,0,0,.55.92,5.66,5.66,0,0,0,1.1,1.1"/><path class="cls-3" d="M185.39,114.19a1.3,1.3,0,1,0,0-2.57"/><line class="cls-3" x1="182.46" y1="111.62" x2="182.46" y2="114.19"/><line class="cls-6" x1="180.07" y1="39.21" x2="187.41" y2="39.21"/><path class="cls-3" d="M187.41,41.41h-4.77l-1.1.36"/><line class="cls-3" x1="180.44" y1="39.21" x2="187.41" y2="39.21"/><path class="cls-3" d="M187.41,41.41a1.1,1.1,0,0,0,0-2.2"/><path class="cls-3" d="M182.64,43.24a2.64,2.64,0,0,1,.37-.73,3,3,0,0,1,1.46-1.1"/><path class="cls-3" d="M191.81,50.57H187l-1.1.37"/><line class="cls-3" x1="184.84" y1="48.37" x2="191.81" y2="48.37"/><path class="cls-3" d="M191.81,50.57a1.1,1.1,0,0,0,0-2.2"/><path class="cls-3" d="M186.67,53.14a3.75,3.75,0,0,1,.74-1.47,3.87,3.87,0,0,1,1.46-1.1"/><path class="cls-3" d="M194,59.74h-4.77l-1.1.37"/><path class="cls-3" d="M187.77,57.54H194"/><path class="cls-3" d="M194,59.74a1.1,1.1,0,0,0,0-2.2"/><path class="cls-3" d="M188.87,62.31a3.68,3.68,0,0,1,.74-1.47,3.76,3.76,0,0,1,1.46-1.1"/><path class="cls-3" d="M96.85,12.81v4.77l.36,1.1"/><path class="cls-3" d="M94.65,19.41v-6.6"/><path class="cls-3" d="M96.85,12.81a1.1,1.1,0,0,0-2.2,0"/><path class="cls-3" d="M98.68,17.58a2.93,2.93,0,0,1-1.83-1.84"/><path class="cls-3" d="M106,8.41v4.77l.37,1.1"/><path class="cls-3" d="M103.81,15V8.41"/><path class="cls-3" d="M106,8.41a1.1,1.1,0,1,0-2.2,0"/><path class="cls-3" d="M107.85,13.18a3,3,0,0,1-.74-.37,3.07,3.07,0,0,1-1.1-1.47"/><path class="cls-3" d="M115.18,5.84v4.77l.37,1.1"/><path class="cls-3" d="M113,12.44V5.84"/><path class="cls-3" d="M115.18,5.84a1.1,1.1,0,1,0-2.2,0"/><path class="cls-3" d="M117,11a10.28,10.28,0,0,1-.73-.74,10.32,10.32,0,0,1-1.1-1.46"/><path class="cls-3" d="M140.11,5.84v4.77l-.37,1.1"/><path class="cls-3" d="M142.31,12.44V5.84"/><path class="cls-3" d="M140.11,5.84a1.1,1.1,0,1,1,2.2,0"/><path class="cls-3" d="M138.28,11c.23-.22.48-.46.73-.74a10.32,10.32,0,0,0,1.1-1.46"/><path class="cls-3" d="M148.91,8.78v4.76c-.12.37-.25.37-.37.74"/><path class="cls-3" d="M151.11,14.73v-6"/><path class="cls-3" d="M148.91,8.78a1.1,1.1,0,1,1,2.2,0"/><path class="cls-3" d="M147.08,13.54c.23-.21.48-.09.73-.36a10.37,10.37,0,0,0,1.1-1.47"/><path class="cls-3" d="M158.07,12.44v4.77c-.12.37-.24.37-.36.73"/><path class="cls-3" d="M160.27,19.41v-7"/><path class="cls-3" d="M158.07,12.44a1.1,1.1,0,1,1,2.2,0"/><path class="cls-3" d="M156.24,17.21c.24-.21.49-.09.73-.37a9,9,0,0,0,1.1-1.46"/><path class="cls-3" d="M194,85h-4.77l-1.1-.37"/><path class="cls-3" d="M187.41,87.24H194"/><path class="cls-3" d="M194,85a1.1,1.1,0,1,1,0,2.2"/><path class="cls-3" d="M188.51,82.84c.21.24.82.85,1.1,1.1a10.32,10.32,0,0,0,1.46,1.1"/><path class="cls-3" d="M191.07,93.84h-4.76c-.37-.12-.37-.25-.74-.37"/><path class="cls-3" d="M184.47,96h6.6"/><path class="cls-3" d="M191.07,93.84a1.1,1.1,0,1,1,0,2.2"/><path class="cls-3" d="M186.31,92c.21.24.09.49.36.74a10.37,10.37,0,0,0,1.47,1.1"/><path class="cls-3" d="M187.41,103h-4.77c-.37-.12-.37-.24-.73-.36"/><path class="cls-3" d="M180.44,105.2h7"/><path class="cls-3" d="M187.41,103a1.1,1.1,0,1,1,0,2.2"/><path class="cls-3" d="M182.64,101.17c.21.24.09.48.37.73a9.61,9.61,0,0,0,1.46,1.1"/><path class="cls-3" d="M114.81,138.93v-4.76l.37-1.1"/><path class="cls-3" d="M112.61,132.33v6.6"/><path class="cls-3" d="M114.81,138.93a1.1,1.1,0,1,1-2.2,0"/><path class="cls-3" d="M117,133.43a12.65,12.65,0,0,0-1.1,1.1,13,13,0,0,0-1.1,1.47"/><path class="cls-3" d="M106,136v-4.77c.12-.36.25-.36.37-.73"/><path class="cls-3" d="M103.81,129.4V136"/><path class="cls-3" d="M106,136a1.1,1.1,0,1,1-2.2,0"/><path class="cls-3" d="M107.85,131.23c-.24.22-.49.1-.74.37a10.37,10.37,0,0,0-1.1,1.47"/><path class="cls-3" d="M140.48,138.57V133.8l-.37-1.1"/><path class="cls-3" d="M142.68,132v6.6"/><path class="cls-3" d="M140.48,138.57a1.1,1.1,0,1,0,2.2,0"/><path class="cls-3" d="M138.64,133.43a10.3,10.3,0,0,1,1.84,2.2"/><path class="cls-3" d="M149.28,136v-4.77c-.13-.36-.25-.36-.37-.73"/><path class="cls-3" d="M151.48,129.4V136"/><path class="cls-3" d="M149.28,136a1.1,1.1,0,0,0,2.2,0"/><path class="cls-3" d="M147.44,131.23c.24.22.49.1.74.37a10.37,10.37,0,0,1,1.1,1.47"/><path class="cls-3" d="M67.88,103h4.77c.37-.12.37-.24.73-.36"/><path class="cls-3" d="M74.85,105.2h-7"/><path class="cls-3" d="M67.88,103a1.1,1.1,0,1,0,0,2.2"/><path class="cls-3" d="M72.65,101.17c-.22.24-.09.48-.37.73a9.61,9.61,0,0,1-1.46,1.1"/><line class="cls-6" x1="148.54" y1="9.14" x2="147.44" y2="8.04"/><path class="cls-3" d="M151.11,10.61a7.07,7.07,0,0,0,2.2-1.1A7.21,7.21,0,0,0,154.78,8V7.31"/><line class="cls-3" x1="154.78" y1="4.74" x2="154.78" y2="7.68"/><line class="cls-3" x1="148.18" y1="4.01" x2="154.41" y2="4.01"/><line class="cls-5" x1="154.78" y1="4.74" x2="154.41" y2="4.01"/><line class="cls-3" x1="147.44" y1="4.74" x2="147.44" y2="8.04"/><line class="cls-5" x1="148.18" y1="4.01" x2="147.44" y2="4.74"/><line class="cls-5" x1="147.44" y1="8.04" x2="148.91" y2="9.88"/><path class="cls-3" d="M103.81,10.61A7,7,0,0,1,100.15,8V7.31"/><line class="cls-3" x1="100.15" y1="7.05" x2="100.15" y2="7.68"/><line class="cls-3" x1="100.15" y1="4.74" x2="100.15" y2="7.05"/><line class="cls-3" x1="106.75" y1="4.01" x2="100.51" y2="4.01"/><line class="cls-5" x1="100.15" y1="4.74" x2="100.51" y2="4.01"/><line class="cls-3" x1="107.48" y1="4.74" x2="107.48" y2="8.04"/><line class="cls-5" x1="106.75" y1="4.01" x2="107.48" y2="4.74"/><line class="cls-5" x1="107.48" y1="8.04" x2="106.01" y2="9.88"/><line class="cls-1" x1="198.59" y1="74.96" x2="201.15" y2="74.96"/><line class="cls-1" x1="198.59" y1="69.82" x2="201.15" y2="69.82"/><line class="cls-2" x1="201.15" y1="74.96" x2="201.15" y2="69.82"/><path class="cls-3" d="M186.81,64l-.14,2.31a8.92,8.92,0,0,0,0,11.73l.13,2.35"/><path class="cls-1" d="M188.69,80.82a31.65,31.65,0,0,1,5.13-2.2,32.43,32.43,0,0,1,4.4-1.1"/><path class="cls-1" d="M189.06,64a25.43,25.43,0,0,0,9.16,2.56"/><circle class="cls-3" cx="190.71" cy="72.21" r="3.67"/><path class="cls-3" d="M194.37,68.54a4.64,4.64,0,0,1,1.47,3.67,4.75,4.75,0,0,1-1.14,3.18"/><path class="cls-5" d="M194.37,68.54a14.08,14.08,0,0,0-1.46-1c-1.19-.7-2-.92-3.67-1.83-.21-.12-.49-.27-.84-.5A10.68,10.68,0,0,1,187,64.14"/><path class="cls-5" d="M194.7,75.39a11.33,11.33,0,0,1-1.79,1.44c-1.4.9-2.24,1-3.67,1.83a10.19,10.19,0,0,0-2.2,1.58"/><path class="cls-5" d="M194.74,75.36l0,0"/><path class="cls-3" d="M119.47,13l2.31.14a8.92,8.92,0,0,0,11.73,0l2.35-.13"/><path class="cls-1" d="M136.26,10.79A27.06,27.06,0,0,1,134.06,6a32.43,32.43,0,0,1-1.1-4.4"/><path class="cls-1" d="M119.39,10.79A24.17,24.17,0,0,0,121.21,6,25.06,25.06,0,0,0,122,1.63"/><circle class="cls-3" cx="127.64" cy="9.14" r="3.67"/><path class="cls-3" d="M124,5.48A4.64,4.64,0,0,1,127.64,4a4.78,4.78,0,0,1,3.19,1.14"/><path class="cls-5" d="M124,5.48a14.08,14.08,0,0,0-1,1.46c-.7,1.19-.92,2-1.84,3.67a9.34,9.34,0,0,1-.49.84,9.62,9.62,0,0,1-1.08,1.36"/><path class="cls-5" d="M130.83,5.15a11.37,11.37,0,0,1,1.43,1.79c.91,1.4,1,2.24,1.84,3.67a10.43,10.43,0,0,0,1.57,2.2"/><path class="cls-3" d="M68.48,64l.14,2.31a8.92,8.92,0,0,1,0,11.73l-.13,2.35"/><path class="cls-1" d="M66.25,80.63a32.94,32.94,0,0,0-4.78-2,32.43,32.43,0,0,0-4.4-1.1"/><path class="cls-1" d="M66.23,64a24,24,0,0,1-4.82,1.81,24.28,24.28,0,0,1-4.34.75"/><circle class="cls-3" cx="64.58" cy="72.21" r="3.67"/><path class="cls-3" d="M60.92,68.54a4.64,4.64,0,0,0-1.47,3.67,4.79,4.79,0,0,0,1.13,3.18"/><path class="cls-5" d="M60.92,68.54a14.08,14.08,0,0,1,1.46-1c1.19-.7,2-.92,3.67-1.83.21-.12.49-.27.83-.5a10.21,10.21,0,0,0,1.37-1.08"/><path class="cls-5" d="M60.58,75.39a12,12,0,0,0,1.8,1.44c1.4.9,2.24,1,3.67,1.83a10.44,10.44,0,0,1,2.2,1.58"/><path class="cls-3" d="M119.47,131.37l2.31-.14a8.92,8.92,0,0,1,11.73,0l2.35.13"/><path class="cls-1" d="M136.26,133.62a27.06,27.06,0,0,0-2.2,4.76c-.32,1-.57,1.9-.77,2.77"/><path class="cls-1" d="M119.39,133.62a24.17,24.17,0,0,1,1.82,4.82,14.62,14.62,0,0,1,.48,2.15"/><circle class="cls-3" cx="127.64" cy="135.27" r="3.67"/><path class="cls-3" d="M124,138.93a4.64,4.64,0,0,0,3.66,1.47,4.82,4.82,0,0,0,3.19-1.13"/><path class="cls-5" d="M124,138.93a14.08,14.08,0,0,1-1-1.46c-.7-1.19-.92-2-1.84-3.67a8.17,8.17,0,0,0-.49-.83,9.22,9.22,0,0,0-1.08-1.37"/><path class="cls-5" d="M130.83,139.27a12,12,0,0,0,1.43-1.8c.91-1.4,1-2.24,1.84-3.67a10.69,10.69,0,0,1,1.57-2.2"/><path class="cls-5" d="M157.46,126.86c3,.52,3.36,2.36,3.36,2.36l5.14,13.2h7.33l.55,1.28h20.9v-6.23L192.91,136l-12.47-18L183,115.1l.36-.36h-2.2c-1.1.36-1.1.73-1.1.73V118l-.73.73h-2.57s6.6,14.3,13.94,17.6"/><path class="cls-5" d="M97.89,127c-3,.53-3.37,2.36-3.37,2.36l-5.13,13.2H82.06l-.55,1.28H60.61v-6.23l1.83-1.47,12.47-18-2.57-2.93-.37-.37h2.2c1.1.37,1.1.73,1.1.73v2.57L76,119h2.56s-6.6,14.3-13.93,17.6"/><path class="cls-1" d="M143.42,141.26c-6.79-1-8.66-1.18-10.11-.2s-4.38,1-5.85,1"/><path class="cls-1" d="M112.06,141.26c6.8-1,8.66-1.18,10.11-.2s4,1,5.48,1"/><line class="cls-2" x1="75.03" y1="38.66" x2="56.33" y2="38.66"/><line class="cls-2" x1="69.9" y1="96.59" x2="56.33" y2="96.59"/><path class="cls-5" d="M41.48,26a43.43,43.43,0,0,0,7.15,3.85A6.52,6.52,0,0,1,53,33.53S56,33.89,56,36.09v64.16c0,2-2.75,1.65-2.75,1.65-1.84,2.94-5.5,2.57-5.5,2.57H13.25L41.67,24.73a2.27,2.27,0,0,0-1.84-2.2l-.25.69-30,82.35h2.2s.73,0,1.46-1.1"/><line class="cls-5" x1="36.72" y1="23.44" x2="39.28" y2="23.44"/><line class="cls-5" x1="10.23" y1="103.81" x2="8.12" y2="103"/><path class="cls-5" d="M3.72,99a3.77,3.77,0,0,0,0,3.67L7,104.47,37.45,21.24l-5.13-.36Z"/><line class="cls-5" x1="52.48" y1="32.61" x2="52.48" y2="102.82"/><path class="cls-5" d="M15.87,97.14,46.62,103a6.14,6.14,0,0,0,5.86-2.18"/><path class="cls-5" d="M31.57,22.93H28.29s-2.57,4.18-1.84,4.91A7.67,7.67,0,0,0,29.34,29"/><path class="cls-5" d="M5.8,93.29C3.35,92.37,3,92.74,3,92.74L1.15,97.87c1.47,1.47,2.43,1.39,2.43,1.39"/><path class="cls-5" d="M28,23.44c-9.59,0-25,12.1-25,23.83"/><path class="cls-5" d="M3.74,42.65c-1.12,0-1.12.59-1.12.59V86.5a6,6,0,0,0,.73,2.2,6.25,6.25,0,0,0,3.16,2.65"/><line class="cls-4" x1="3.54" y1="89.07" x2="3.54" y2="92.67"/></g></g></svg>