<svg id="phone_white" xmlns="http://www.w3.org/2000/svg" width="20" height="20" viewBox="0 0 20 20">
  <defs>
    <style>
      .cls-1 {
        fill: #fff;
      }
    </style>
  </defs>
  <path id="Trazado_1" data-name="Trazado 1" class="cls-1" d="M154.4,3922.635c2.5,4.632,2.532,4.8,2.532,4.8a.362.362,0,0,1,0,.322c-.084.179-1.5,1.55-1.5,1.55s-.192.048-.132.561a12.218,12.218,0,0,0,.862,2.111s3.386,4.666,6.392,5.584a1.707,1.707,0,0,0,1.732-.615s.894-.936,1.013-1a2.476,2.476,0,0,1,.636-.055s4.338,2.543,4.593,2.734a.66.66,0,0,1,0,.345,45.9,45.9,0,0,1-3.564,3.458,8.1,8.1,0,0,1-2.409-.176,34.424,34.424,0,0,1-4.216-1.9,28.158,28.158,0,0,1-6.379-5.837c-3.461-4.139-3.389-7.478-3.389-7.478a2.414,2.414,0,0,1,.132-1.109,23.6,23.6,0,0,1,2.922-3.041c.018-.017.385-.337.4-.346C154.158,3922.424,154.4,3922.635,154.4,3922.635Z" transform="translate(-150.561 -3922.45)"/>
  <path id="Trazado_2" data-name="Trazado 2" class="cls-1" d="M250.445,3996.344c.032,1.022.019,1.077.023,1.166.164-.056,2.551.79,2.762,2.748,1.243.013,1.225,0,1.225,0A4.479,4.479,0,0,0,250.445,3996.344Z" transform="translate(-241.422 -3989.645)"/>
  <path id="Trazado_3" data-name="Trazado 3" class="cls-1" d="M250.875,3960.224a6.479,6.479,0,0,1,5.875,5.81,9.658,9.658,0,0,0,1.421,0,7.852,7.852,0,0,0-7.3-7.264C250.889,3960.1,250.875,3960.224,250.875,3960.224Z" transform="translate(-241.813 -3955.451)"/>
  <path id="Trazado_4" data-name="Trazado 4" class="cls-1" d="M250.853,3923.323a9.837,9.837,0,0,1,9.229,9.142c1.33.007,1.423,0,1.423,0a11.355,11.355,0,0,0-10.669-10.582C250.859,3923.171,250.853,3923.323,250.853,3923.323Z" transform="translate(-241.777 -3921.883)"/>
</svg>
