<svg xmlns="http://www.w3.org/2000/svg" width="30" height="30.867" viewBox="0 0 30 30.867">
  <g id="phone_color" transform="translate(0 0)">
    <path id="Trazado_1" data-name="Trazado 1" d="M156.326,3922.707c3.745,7.149,3.8,7.4,3.8,7.4a.574.574,0,0,1,0,.5c-.126.276-2.246,2.393-2.246,2.393s-.287.074-.2.865a19.153,19.153,0,0,0,1.293,3.258s5.078,7.2,9.587,8.619a2.53,2.53,0,0,0,2.6-.948s1.34-1.444,1.52-1.543a3.626,3.626,0,0,1,.953-.085s6.508,3.925,6.89,4.219a1.05,1.05,0,0,1,0,.534s-4.56,4.934-5.347,5.337a11.836,11.836,0,0,1-3.614-.272,50.837,50.837,0,0,1-6.325-2.93,42.6,42.6,0,0,1-9.569-9.009c-5.192-6.387-5.084-11.541-5.084-11.541a3.826,3.826,0,0,1,.2-1.711c.3-.784,3.628-3.982,4.383-4.694.027-.026.578-.52.593-.534C155.956,3922.38,156.326,3922.707,156.326,3922.707Z" transform="translate(-150.561 -3922.422)" fill="#006aff"/>
    <path id="Trazado_2" data-name="Trazado 2" d="M250.445,3996.345c.047,1.578.029,1.661.034,1.8.245-.086,3.827,1.219,4.143,4.24,1.864.021,1.837,0,1.837,0S255.946,3996.987,250.445,3996.345Z" transform="translate(-236.911 -3986.007)" fill="#29598a"/>
    <path id="Trazado_3" data-name="Trazado 3" d="M250.875,3961.016s7.6.4,8.813,8.966a13.972,13.972,0,0,0,2.131,0s-.45-10.026-10.944-11.21C250.9,3960.831,250.875,3961.016,250.875,3961.016Z" transform="translate(-237.282 -3953.651)" fill="#29598a"/>
    <path id="Trazado_4" data-name="Trazado 4" d="M250.862,3924.107s12.162.324,13.843,14.109c2,.01,2.134,0,2.134,0s-.54-14.622-16-16.332C250.871,3923.872,250.862,3924.107,250.862,3924.107Z" transform="translate(-237.248 -3921.885)" fill="#29598a"/>
  </g>
</svg>
