<svg id="whatsapp1_color" xmlns="http://www.w3.org/2000/svg" width="35" height="34.972" viewBox="0 0 35 34.972">
  <defs>
    <style>
      .cls-1 {
        fill: #fff;
      }

      .cls-2 {
        fill: #25d366;
      }
    </style>
  </defs>
  <g id="Grupo_69" data-name="Grupo 69" transform="translate(2.359 4.094)">
    <g id="Grupo_68" data-name="Grupo 68">
      <rect id="Rectángulo_267" data-name="Rectángulo 267" class="cls-1" width="30.254" height="26.784"/>
      <path id="Trazado_39" data-name="Trazado 39" class="cls-2" d="M134.193,119.4a8.961,8.961,0,0,0-8.993,8.937,8.861,8.861,0,0,0,1.721,5.246l-1.138,3.331,3.469-1.11a9.045,9.045,0,0,0,13.989-7.466A9.027,9.027,0,0,0,134.193,119.4Zm5.274,12.629a2.738,2.738,0,0,1-1.776,1.249c-.472.056-.472.389-3.164-.638a10.818,10.818,0,0,1-4.5-3.941,4.955,4.955,0,0,1-1.082-2.692,2.845,2.845,0,0,1,.916-2.165,1.048,1.048,0,0,1,.694-.333c.167,0,.361.028.5.028.167,0,.361-.083.583.444s.749,1.8.8,1.943a.5.5,0,0,1,.028.444,3.581,3.581,0,0,1-.25.444c-.139.139-.278.333-.389.444-.139.139-.278.278-.111.527a8.9,8.9,0,0,0,1.471,1.8,7.666,7.666,0,0,0,2.109,1.3c.25.139.416.111.555-.056a8.326,8.326,0,0,0,.833-1.027c.167-.25.361-.222.583-.139.25.083,1.527.722,1.8.86.25.139.444.194.5.305A1.9,1.9,0,0,1,139.466,132.029Z" transform="translate(-118.872 -115.223)"/>
    </g>
  </g>
  <g id="Grupo_71" data-name="Grupo 71">
    <g id="Grupo_70" data-name="Grupo 70" transform="translate(0 0)">
      <path id="Trazado_40" data-name="Trazado 40" class="cls-2" d="M26.2.2H8.771A8.789,8.789,0,0,0,0,8.971V26.429a8.784,8.784,0,0,0,8.771,8.743H26.229A8.789,8.789,0,0,0,35,26.4V8.971A8.831,8.831,0,0,0,26.2.2ZM17.68,28.039a10.616,10.616,0,0,1-5.19-1.332L6.55,28.594,8.493,22.9a10.74,10.74,0,1,1,9.187,5.135Z" transform="translate(0 -0.2)"/>
    </g>
  </g>
</svg>
