<svg xmlns="http://www.w3.org/2000/svg" width="51.3" height="68.021" viewBox="0 0 51.3 68.021">
  <g id="list_dark" transform="translate(-70.7)">
    <path id="Trazado_104" data-name="Trazado 104" d="M229.5,223.809H245.21a1.605,1.605,0,0,0,0-3.209H229.5A1.606,1.606,0,0,0,229.5,223.809Z" transform="translate(-138.628 -194.476)" fill="#091a2b"/>
    <path id="Trazado_105" data-name="Trazado 105" d="M229.5,304.809H245.21a1.605,1.605,0,0,0,0-3.209H229.5A1.606,1.606,0,0,0,229.5,304.809Z" transform="translate(-138.628 -265.884)" fill="#091a2b"/>
    <path id="Trazado_106" data-name="Trazado 106" d="M229.5,138.109H245.21a1.605,1.605,0,0,0,0-3.209H229.5A1.606,1.606,0,0,0,229.5,138.109Z" transform="translate(-138.628 -118.925)" fill="#091a2b"/>
    <path id="Trazado_107" data-name="Trazado 107" d="M156.061,128.2H151.6c-.166,0-.3.095-.3.225v4.5c0,.118.13.213.3.213h4.464c.166,0,.3-.095.3-.213v-4.5C156.357,128.295,156.226,128.2,156.061,128.2Z" transform="translate(-71.055 -113.018)" fill="#091a2b"/>
    <path id="Trazado_108" data-name="Trazado 108" d="M153.761,212.6H149.3c-.154,0-.3.095-.3.225v4.5a.271.271,0,0,0,.3.225h4.464c.166,0,.3-.095.3-.225v-4.5C154.057,212.695,153.926,212.6,153.761,212.6Z" transform="translate(-69.028 -187.424)" fill="#091a2b"/>
    <path id="Trazado_109" data-name="Trazado 109" d="M153.761,294.7H149.3c-.154,0-.3.107-.3.225v4.5c0,.118.13.213.3.213h4.464c.166,0,.3-.095.3-.213v-4.5A.271.271,0,0,0,153.761,294.7Z" transform="translate(-69.028 -259.801)" fill="#091a2b"/>
    <path id="Trazado_110" data-name="Trazado 110" d="M153.761,380H149.3c-.154,0-.3.095-.3.225v4.5a.271.271,0,0,0,.3.225h4.464c.166,0,.3-.095.3-.225v-4.5A.271.271,0,0,0,153.761,380Z" transform="translate(-69.028 -335)" fill="#091a2b"/>
    <path id="Trazado_111" data-name="Trazado 111" d="M115.534,41.282V2.818h-6.951V0H78.433V2.818H70.7V60.845H95.3v7.176H122V41.282ZM74.939,56.605V7.07h3.493V9.888h30.162V7.07h2.7V41.282h-16v4.595H90.867a1.606,1.606,0,0,0,0,3.209H95.3v7.52Zm44.218,8.6H98.126V44.112h21.032V65.2Z" transform="translate(0)" fill="#091a2b"/>
    <g id="Grupo_123" data-name="Grupo 123" transform="translate(102.33 45.118)">
      <path id="Trazado_112" data-name="Trazado 112" d="M341.661,393.742v-4.086a6.773,6.773,0,0,0,3.162-.71,2.271,2.271,0,0,0,1.054-2.12v-.379a1.965,1.965,0,0,0-.6-1.551,2.276,2.276,0,0,0-1.563-.533,2.438,2.438,0,0,0-1.729.639,3.292,3.292,0,0,0-.924,1.634l-3.257-1.362a7.031,7.031,0,0,1,.7-1.563,5.361,5.361,0,0,1,1.184-1.362,5.868,5.868,0,0,1,1.764-.971,6.994,6.994,0,0,1,2.392-.379,7.486,7.486,0,0,1,2.534.4,5.984,5.984,0,0,1,1.978,1.125,4.856,4.856,0,0,1,1.267,1.741,5.528,5.528,0,0,1,.438,2.25,5.379,5.379,0,0,1-.379,2.037,5.136,5.136,0,0,1-1.018,1.587,5.344,5.344,0,0,1-1.492,1.113,6.479,6.479,0,0,1-1.788.592v1.93h-3.718Zm1.918,6.549a2.439,2.439,0,0,1-1.836-.592,2.032,2.032,0,0,1-.545-1.445v-.639a2.032,2.032,0,0,1,.545-1.445,3.141,3.141,0,0,1,3.671,0,2.032,2.032,0,0,1,.545,1.445v.639a2.032,2.032,0,0,1-.545,1.445A2.393,2.393,0,0,1,343.579,400.291Z" transform="translate(-337.8 -381)" fill="#091a2b"/>
    </g>
  </g>
</svg>
