<svg id="money" xmlns="http://www.w3.org/2000/svg" width="107.191" height="88.037" viewBox="0 0 107.191 88.037">
  <g id="Grupo_103" data-name="Grupo 103" transform="translate(0 41.328)">
    <g id="Grupo_102" data-name="Grupo 102">
      <path id="Trazado_91" data-name="Trazado 91" d="M99.138,248.256a7.9,7.9,0,0,0-3.244.723,7.953,7.953,0,0,0-9.947-2.223l-.11.061-3.291,1.952a7.944,7.944,0,0,0-9.774-2.013l-.132.074-12.6,7.718c-2.846-.841-6.005-1.763-9.058-2.629-3.221-.914-6.318-1.763-8.8-2.389-1.243-.314-2.331-.571-3.219-.755-.446-.092-.841-.165-1.192-.219a6.651,6.651,0,0,0-.988-.091,6.066,6.066,0,0,0-.738.055c-.928.122-2.248.4-3.805.77-3.181.747-7.241,1.835-9.484,2.445v-3.8a4.8,4.8,0,0,0-4.791-4.791H4.791A4.805,4.805,0,0,0,0,247.94v37.127a4.8,4.8,0,0,0,4.791,4.791H17.965a4.8,4.8,0,0,0,4.791-4.791v-2.883c2.843.619,9.154,1.982,15.807,3.348,4.5.924,9.15,1.848,12.991,2.545,1.921.349,3.64.64,5.047.846a26.039,26.039,0,0,0,3.283.337,6.989,6.989,0,0,0,1.863-.3,25.782,25.782,0,0,0,4.109-1.664c5.414-2.64,13.191-7.585,20.526-12.478s14.172-9.714,17.528-12.026a7.814,7.814,0,0,0,3.282-6.484A8.058,8.058,0,0,0,99.138,248.256ZM19.162,285.067a1.214,1.214,0,0,1-1.2,1.2H4.791a1.214,1.214,0,0,1-1.2-1.2V247.94a1.214,1.214,0,0,1,1.2-1.2H17.965a1.214,1.214,0,0,1,1.2,1.2Zm82.71-25.232c-4.127,2.843-13.362,9.364-22.3,15.171-4.466,2.9-8.858,5.621-12.459,7.592a50.95,50.95,0,0,1-4.686,2.315,14.865,14.865,0,0,1-1.646.589,3.775,3.775,0,0,1-.9.165,23.955,23.955,0,0,1-2.762-.3c-4.719-.691-13.551-2.455-21.157-4.042-3.806-.794-7.312-1.544-9.866-2.095-1.484-.32-2.629-.57-3.343-.725V255.462c.351-.1.811-.223,1.363-.372,1.894-.514,4.783-1.284,7.375-1.922,1.295-.32,2.518-.6,3.489-.807.484-.1.907-.181,1.231-.232a4.9,4.9,0,0,1,.569-.068,4.368,4.368,0,0,1,.45.05c.992.148,3.024.624,5.5,1.272,7.46,1.949,19.223,5.471,23.976,6.914a10.735,10.735,0,0,1,4.11,2.15,4.776,4.776,0,0,1,1.108,1.46,4.1,4.1,0,0,1,.39,1.79,5.081,5.081,0,0,1-5.043,5.082l-4.636-.454-15.822-2.031a1.8,1.8,0,1,0-.459,3.564l15.873,2.037,4.913.481h.089A8.681,8.681,0,0,0,75.91,265.7a7.7,7.7,0,0,0-.738-3.333,9.021,9.021,0,0,0-3.155-3.536,15.707,15.707,0,0,0-4.264-1.969c-.833-.253-1.884-.571-3.084-.932l9.75-5.973a4.332,4.332,0,0,1,4.968.689L74.571,253.5a1.8,1.8,0,0,0,1.835,3.09l11.181-6.631a4.337,4.337,0,0,1,5.137.842L79.7,258.522a1.8,1.8,0,0,0,1.835,3.09l14.078-8.35a1.759,1.759,0,0,0,.408-.114,1.778,1.778,0,0,0,.7-.546l.439-.261a4.394,4.394,0,0,1,1.974-.492,4.462,4.462,0,0,1,4.459,4.461A4.256,4.256,0,0,1,101.872,259.835Z" transform="translate(0 -243.149)" fill="#091a2b"/>
    </g>
  </g>
  <g id="Grupo_105" data-name="Grupo 105" transform="translate(46.109 0)">
    <g id="Grupo_104" data-name="Grupo 104">
      <path id="Trazado_92" data-name="Trazado 92" d="M239.051,66.2a15.994,15.994,0,0,0-5.219-2.307c-.247-.07-.489-.126-.735-.191V52.734a8.331,8.331,0,0,1,3.91,1.483,4.451,4.451,0,0,1,1.32,1.6,4.7,4.7,0,0,1,.437,2.045,1.8,1.8,0,0,0,3.593,0,8.293,8.293,0,0,0-.788-3.594,8.494,8.494,0,0,0-4.052-3.941,13.72,13.72,0,0,0-4.419-1.21v-1.58a1.8,1.8,0,1,0-3.593,0v1.48a12.535,12.535,0,0,0-3.506.75,8.873,8.873,0,0,0-4.443,3.556,8.58,8.58,0,0,0-1.311,4.539,7.214,7.214,0,0,0,3.383,6.388,17.551,17.551,0,0,0,5.166,2.061c.236.061.473.121.709.18v11.8a7.34,7.34,0,0,1-3.987-1.518,4.673,4.673,0,0,1-1.68-3.7,1.8,1.8,0,1,0-3.593,0,8.3,8.3,0,0,0,2.952,6.442,11.005,11.005,0,0,0,6.308,2.4v1.56a1.8,1.8,0,1,0,3.593,0V81.854a12.882,12.882,0,0,0,5.557-1.713,7.653,7.653,0,0,0,2.72-2.861,9.558,9.558,0,0,0-.036-8.512A7.963,7.963,0,0,0,239.051,66.2ZM229.5,62.78a12.644,12.644,0,0,1-4.177-1.723,3.579,3.579,0,0,1-1.084-1.249,4.2,4.2,0,0,1-.4-1.943,4.954,4.954,0,0,1,1.4-3.433,5.574,5.574,0,0,1,2.043-1.3,8.847,8.847,0,0,1,2.227-.5V62.78Zm8.709,12.792a3.909,3.909,0,0,1-1.007,1.2,6.791,6.791,0,0,1-2.623,1.2,12.778,12.778,0,0,1-1.485.266V67.422a15.206,15.206,0,0,1,2.919,1.105,5.244,5.244,0,0,1,2.01,1.7,4.976,4.976,0,0,1,.738,2.846A5.184,5.184,0,0,1,238.211,75.573Z" transform="translate(-220.242 -45.744)" fill="#091a2b"/>
    </g>
  </g>
</svg>
